M48
; DRILL file {KiCad 9.0.1} date 2025-07-02T15:08:08+0200
; FORMAT={-:-/ absolute / metric / decimal}
; #@! TF.CreationDate,2025-07-02T15:08:08+02:00
; #@! TF.GenerationSoftware,Kicad,Pcbnew,9.0.1
; #@! TF.FileFunction,Plated,1,2,PTH
FMAT,2
METRIC
; #@! TA.AperFunction,Plated,PTH,ViaDrill
T1C0.300
; #@! TA.AperFunction,Plated,PTH,ComponentDrill
T2C1.020
; #@! TA.AperFunction,Plated,PTH,ComponentDrill
T3C1.200
%
G90
G05
T1
X140.0Y-77.25
X140.0Y-90.25
X140.75Y-73.5
X140.75Y-86.5
X141.0Y-88.75
X142.25Y-71.25
X142.25Y-84.25
X143.0Y-82.0
X146.5Y-85.0
X152.75Y-83.25
T2
X137.965Y-76.5
X137.965Y-79.5
X137.965Y-89.5
X137.965Y-92.5
X169.0Y-80.5
X169.0Y-83.5
T3
X157.676Y-89.0
X158.0Y-75.0
X162.676Y-89.0
X163.0Y-75.0
M30
