%TF.GenerationSoftware,KiCad,Pcbnew,9.0.1*%
%TF.CreationDate,2025-07-01T13:45:27+02:00*%
%TF.ProjectId,BatteryBackup,42617474-6572-4794-9261-636b75702e6b,rev?*%
%TF.SameCoordinates,Original*%
%TF.FileFunction,Paste,Top*%
%TF.FilePolarity,Positive*%
%FSLAX46Y46*%
G04 Gerber Fmt 4.6, Leading zero omitted, Abs format (unit mm)*
G04 Created by KiCad (PCBNEW 9.0.1) date 2025-07-01 13:45:27*
%MOMM*%
%LPD*%
G01*
G04 APERTURE LIST*
G04 Aperture macros list*
%AMRoundRect*
0 Rectangle with rounded corners*
0 $1 Rounding radius*
0 $2 $3 $4 $5 $6 $7 $8 $9 X,Y pos of 4 corners*
0 Add a 4 corners polygon primitive as box body*
4,1,4,$2,$3,$4,$5,$6,$7,$8,$9,$2,$3,0*
0 Add four circle primitives for the rounded corners*
1,1,$1+$1,$2,$3*
1,1,$1+$1,$4,$5*
1,1,$1+$1,$6,$7*
1,1,$1+$1,$8,$9*
0 Add four rect primitives between the rounded corners*
20,1,$1+$1,$2,$3,$4,$5,0*
20,1,$1+$1,$4,$5,$6,$7,0*
20,1,$1+$1,$6,$7,$8,$9,0*
20,1,$1+$1,$8,$9,$2,$3,0*%
%AMFreePoly0*
4,1,14,0.240000,-2.550000,-0.240000,-2.550000,-0.890000,-2.550000,-0.890000,-1.450000,-0.240000,-1.450000,-0.240000,-0.550000,-0.890000,-0.550000,-0.890000,0.550000,-0.240000,0.550000,-0.240000,1.450000,-0.890000,1.450000,-0.890000,2.550000,0.240000,2.550000,0.240000,-2.550000,0.240000,-2.550000,$1*%
G04 Aperture macros list end*
%ADD10RoundRect,0.375000X-0.375000X0.375000X-0.375000X-0.375000X0.375000X-0.375000X0.375000X0.375000X0*%
%ADD11RoundRect,0.275000X-0.290000X-0.275000X0.290000X-0.275000X0.290000X0.275000X-0.290000X0.275000X0*%
%ADD12FreePoly0,0.000000*%
%ADD13RoundRect,0.200000X-0.275000X0.200000X-0.275000X-0.200000X0.275000X-0.200000X0.275000X0.200000X0*%
%ADD14RoundRect,0.250000X0.475000X-0.250000X0.475000X0.250000X-0.475000X0.250000X-0.475000X-0.250000X0*%
%ADD15RoundRect,0.225000X0.250000X-0.225000X0.250000X0.225000X-0.250000X0.225000X-0.250000X-0.225000X0*%
%ADD16RoundRect,0.200000X0.275000X-0.200000X0.275000X0.200000X-0.275000X0.200000X-0.275000X-0.200000X0*%
%ADD17RoundRect,0.135000X0.135000X-0.200000X0.135000X0.200000X-0.135000X0.200000X-0.135000X-0.200000X0*%
%ADD18RoundRect,0.062500X0.062500X-0.350000X0.062500X0.350000X-0.062500X0.350000X-0.062500X-0.350000X0*%
%ADD19RoundRect,0.250000X-0.475000X0.250000X-0.475000X-0.250000X0.475000X-0.250000X0.475000X0.250000X0*%
G04 APERTURE END LIST*
D10*
%TO.C,Q1*%
X148000000Y-86535000D03*
X148000000Y-88785000D03*
X148000000Y-91035000D03*
X150500000Y-86535000D03*
X150500000Y-88785000D03*
X150500000Y-91035000D03*
D11*
X144565000Y-85785000D03*
D12*
X144890000Y-89785000D03*
%TD*%
D13*
%TO.C,R2*%
X137000000Y-69900000D03*
X137000000Y-71550000D03*
%TD*%
D14*
%TO.C,C6*%
X141000000Y-79000000D03*
X141000000Y-77100000D03*
%TD*%
D10*
%TO.C,Q2*%
X147500000Y-72000000D03*
X147500000Y-74250000D03*
X147500000Y-76500000D03*
X150000000Y-72000000D03*
X150000000Y-74250000D03*
X150000000Y-76500000D03*
D11*
X144065000Y-71250000D03*
D12*
X144390000Y-75250000D03*
%TD*%
D14*
%TO.C,C5*%
X141000000Y-92000000D03*
X141000000Y-90100000D03*
%TD*%
D15*
%TO.C,C3*%
X144000000Y-83500000D03*
X144000000Y-81950000D03*
%TD*%
%TO.C,C4*%
X139000000Y-71550000D03*
X139000000Y-70000000D03*
%TD*%
D16*
%TO.C,R1*%
X145725000Y-83550000D03*
X145725000Y-81900000D03*
%TD*%
D17*
%TO.C,U1*%
X141320000Y-86820000D03*
X142000000Y-86820000D03*
X141320000Y-86000000D03*
X142000000Y-86000000D03*
D18*
X141160000Y-87847500D03*
X141660000Y-87847500D03*
X142160000Y-87847500D03*
X142160000Y-84972500D03*
X141660000Y-84972500D03*
X141160000Y-84972500D03*
%TD*%
D17*
%TO.C,U2*%
X141320000Y-73820000D03*
X142000000Y-73820000D03*
X141320000Y-73000000D03*
X142000000Y-73000000D03*
D18*
X141160000Y-74847500D03*
X141660000Y-74847500D03*
X142160000Y-74847500D03*
X142160000Y-71972500D03*
X141660000Y-71972500D03*
X141160000Y-71972500D03*
%TD*%
D19*
%TO.C,C1*%
X154000000Y-81000000D03*
X154000000Y-82900000D03*
%TD*%
M02*
