%TF.GenerationSoftware,KiCad,Pcbnew,9.0.1*%
%TF.CreationDate,2025-07-01T13:45:27+02:00*%
%TF.ProjectId,BatteryBackup,42617474-6572-4794-9261-636b75702e6b,rev?*%
%TF.SameCoordinates,Original*%
%TF.FileFunction,Copper,L1,Top*%
%TF.FilePolarity,Positive*%
%FSLAX46Y46*%
G04 Gerber Fmt 4.6, Leading zero omitted, Abs format (unit mm)*
G04 Created by KiCad (PCBNEW 9.0.1) date 2025-07-01 13:45:27*
%MOMM*%
%LPD*%
G01*
G04 APERTURE LIST*
G04 Aperture macros list*
%AMRoundRect*
0 Rectangle with rounded corners*
0 $1 Rounding radius*
0 $2 $3 $4 $5 $6 $7 $8 $9 X,Y pos of 4 corners*
0 Add a 4 corners polygon primitive as box body*
4,1,4,$2,$3,$4,$5,$6,$7,$8,$9,$2,$3,0*
0 Add four circle primitives for the rounded corners*
1,1,$1+$1,$2,$3*
1,1,$1+$1,$4,$5*
1,1,$1+$1,$6,$7*
1,1,$1+$1,$8,$9*
0 Add four rect primitives between the rounded corners*
20,1,$1+$1,$2,$3,$4,$5,0*
20,1,$1+$1,$4,$5,$6,$7,0*
20,1,$1+$1,$6,$7,$8,$9,0*
20,1,$1+$1,$8,$9,$2,$3,0*%
%AMFreePoly0*
4,1,14,0.240000,-2.550000,-0.240000,-2.550000,-0.890000,-2.550000,-0.890000,-1.450000,-0.240000,-1.450000,-0.240000,-0.550000,-0.890000,-0.550000,-0.890000,0.550000,-0.240000,0.550000,-0.240000,1.450000,-0.890000,1.450000,-0.890000,2.550000,0.240000,2.550000,0.240000,-2.550000,0.240000,-2.550000,$1*%
%AMFreePoly1*
4,1,21,3.715000,2.450000,2.615000,2.450000,2.615000,1.550000,3.715000,1.550000,3.715000,0.450000,2.615000,0.450000,2.615000,-0.450000,3.715000,-0.450000,3.715000,-1.550000,2.615000,-1.550000,2.615000,-2.450000,3.715000,-2.450000,3.715000,-3.550000,2.615000,-3.550000,2.615000,-3.450000,-2.615000,-3.450000,-2.615000,3.450000,2.615000,3.450000,2.615000,3.550000,3.715000,3.550000,
3.715000,2.450000,3.715000,2.450000,$1*%
G04 Aperture macros list end*
%TA.AperFunction,ComponentPad*%
%ADD10RoundRect,0.250001X0.759999X-0.499999X0.759999X0.499999X-0.759999X0.499999X-0.759999X-0.499999X0*%
%TD*%
%TA.AperFunction,ComponentPad*%
%ADD11O,2.020000X1.500000*%
%TD*%
%TA.AperFunction,SMDPad,CuDef*%
%ADD12RoundRect,0.275000X-0.290000X-0.275000X0.290000X-0.275000X0.290000X0.275000X-0.290000X0.275000X0*%
%TD*%
%TA.AperFunction,SMDPad,CuDef*%
%ADD13FreePoly0,0.000000*%
%TD*%
%TA.AperFunction,SMDPad,CuDef*%
%ADD14FreePoly1,0.000000*%
%TD*%
%TA.AperFunction,SMDPad,CuDef*%
%ADD15RoundRect,0.200000X-0.275000X0.200000X-0.275000X-0.200000X0.275000X-0.200000X0.275000X0.200000X0*%
%TD*%
%TA.AperFunction,SMDPad,CuDef*%
%ADD16RoundRect,0.250000X0.475000X-0.250000X0.475000X0.250000X-0.475000X0.250000X-0.475000X-0.250000X0*%
%TD*%
%TA.AperFunction,ComponentPad*%
%ADD17RoundRect,0.250001X-0.759999X0.499999X-0.759999X-0.499999X0.759999X-0.499999X0.759999X0.499999X0*%
%TD*%
%TA.AperFunction,SMDPad,CuDef*%
%ADD18RoundRect,0.225000X0.250000X-0.225000X0.250000X0.225000X-0.250000X0.225000X-0.250000X-0.225000X0*%
%TD*%
%TA.AperFunction,ComponentPad*%
%ADD19R,2.400000X2.400000*%
%TD*%
%TA.AperFunction,ComponentPad*%
%ADD20C,2.400000*%
%TD*%
%TA.AperFunction,SMDPad,CuDef*%
%ADD21RoundRect,0.200000X0.275000X-0.200000X0.275000X0.200000X-0.275000X0.200000X-0.275000X-0.200000X0*%
%TD*%
%TA.AperFunction,SMDPad,CuDef*%
%ADD22RoundRect,0.062500X0.062500X-0.350000X0.062500X0.350000X-0.062500X0.350000X-0.062500X-0.350000X0*%
%TD*%
%TA.AperFunction,HeatsinkPad*%
%ADD23R,1.350000X1.650000*%
%TD*%
%TA.AperFunction,SMDPad,CuDef*%
%ADD24RoundRect,0.250000X-0.475000X0.250000X-0.475000X-0.250000X0.475000X-0.250000X0.475000X0.250000X0*%
%TD*%
%TA.AperFunction,ViaPad*%
%ADD25C,0.600000*%
%TD*%
%TA.AperFunction,Conductor*%
%ADD26C,0.254000*%
%TD*%
%TA.AperFunction,Conductor*%
%ADD27C,3.000000*%
%TD*%
%TA.AperFunction,Conductor*%
%ADD28C,2.000000*%
%TD*%
G04 APERTURE END LIST*
D10*
%TO.P,J1,1,Pin_1*%
%TO.N,/IdealDiode/Vin*%
X137965000Y-92500000D03*
D11*
%TO.P,J1,2,Pin_2*%
%TO.N,GND*%
X137965000Y-89500000D03*
%TD*%
D12*
%TO.P,Q1,1,G*%
%TO.N,Net-(Q1-G)*%
X144565000Y-85785000D03*
D13*
%TO.P,Q1,2,S*%
%TO.N,/IdealDiode/Vin*%
X144890000Y-89785000D03*
D14*
%TO.P,Q1,3,D*%
%TO.N,/IdealDiode/Vout*%
X149285000Y-88785000D03*
%TD*%
D15*
%TO.P,R2,1*%
%TO.N,/IdealDiode/Vout*%
X137000000Y-69900000D03*
%TO.P,R2,2*%
%TO.N,Net-(U2-Vdd)*%
X137000000Y-71550000D03*
%TD*%
D16*
%TO.P,C6,1*%
%TO.N,/IdealDiode1/Vin*%
X141000000Y-79000000D03*
%TO.P,C6,2*%
%TO.N,GND*%
X141000000Y-77100000D03*
%TD*%
D12*
%TO.P,Q2,1,G*%
%TO.N,Net-(Q2-G)*%
X144065000Y-71250000D03*
D13*
%TO.P,Q2,2,S*%
%TO.N,/IdealDiode1/Vin*%
X144390000Y-75250000D03*
D14*
%TO.P,Q2,3,D*%
%TO.N,/IdealDiode/Vout*%
X148785000Y-74250000D03*
%TD*%
D10*
%TO.P,J2,1,Pin_1*%
%TO.N,/IdealDiode1/Vin*%
X137965000Y-79500000D03*
D11*
%TO.P,J2,2,Pin_2*%
%TO.N,GND*%
X137965000Y-76500000D03*
%TD*%
D16*
%TO.P,C5,1*%
%TO.N,/IdealDiode/Vin*%
X141000000Y-92000000D03*
%TO.P,C5,2*%
%TO.N,GND*%
X141000000Y-90100000D03*
%TD*%
D17*
%TO.P,J3,1,Pin_1*%
%TO.N,/IdealDiode/Vout*%
X169000000Y-80500000D03*
D11*
%TO.P,J3,2,Pin_2*%
%TO.N,GND*%
X169000000Y-83500000D03*
%TD*%
D18*
%TO.P,C3,1*%
%TO.N,Net-(U1-Vdd)*%
X144000000Y-83500000D03*
%TO.P,C3,2*%
%TO.N,GND*%
X144000000Y-81950000D03*
%TD*%
%TO.P,C4,1*%
%TO.N,Net-(U2-Vdd)*%
X139000000Y-71550000D03*
%TO.P,C4,2*%
%TO.N,GND*%
X139000000Y-70000000D03*
%TD*%
D19*
%TO.P,C2,1*%
%TO.N,/IdealDiode/Vout*%
X157676041Y-89000000D03*
D20*
%TO.P,C2,2*%
%TO.N,GND*%
X162676041Y-89000000D03*
%TD*%
D21*
%TO.P,R1,1*%
%TO.N,/IdealDiode/Vout*%
X145725000Y-83550000D03*
%TO.P,R1,2*%
%TO.N,Net-(U1-Vdd)*%
X145725000Y-81900000D03*
%TD*%
D22*
%TO.P,U1,1,OUT*%
%TO.N,/IdealDiode/Vout*%
X141160000Y-87847500D03*
%TO.P,U1,2,IN*%
%TO.N,/IdealDiode/Vin*%
X141660000Y-87847500D03*
%TO.P,U1,3,GATE*%
%TO.N,Net-(Q1-G)*%
X142160000Y-87847500D03*
%TO.P,U1,4,GND*%
%TO.N,GND*%
X142160000Y-84972500D03*
%TO.P,U1,5,NC*%
%TO.N,unconnected-(U1-NC-Pad5)*%
X141660000Y-84972500D03*
%TO.P,U1,6,Vdd*%
%TO.N,Net-(U1-Vdd)*%
X141160000Y-84972500D03*
D23*
%TO.P,U1,7,PAD*%
%TO.N,GND*%
X141660000Y-86410000D03*
%TD*%
D22*
%TO.P,U2,1,OUT*%
%TO.N,/IdealDiode/Vout*%
X141160000Y-74847500D03*
%TO.P,U2,2,IN*%
%TO.N,/IdealDiode1/Vin*%
X141660000Y-74847500D03*
%TO.P,U2,3,GATE*%
%TO.N,Net-(Q2-G)*%
X142160000Y-74847500D03*
%TO.P,U2,4,GND*%
%TO.N,GND*%
X142160000Y-71972500D03*
%TO.P,U2,5,NC*%
%TO.N,unconnected-(U2-NC-Pad5)*%
X141660000Y-71972500D03*
%TO.P,U2,6,Vdd*%
%TO.N,Net-(U2-Vdd)*%
X141160000Y-71972500D03*
D23*
%TO.P,U2,7,PAD*%
%TO.N,GND*%
X141660000Y-73410000D03*
%TD*%
D19*
%TO.P,C7,1*%
%TO.N,/IdealDiode/Vout*%
X158000000Y-75000000D03*
D20*
%TO.P,C7,2*%
%TO.N,GND*%
X163000000Y-75000000D03*
%TD*%
D24*
%TO.P,C1,1*%
%TO.N,/IdealDiode/Vout*%
X154000000Y-81000000D03*
%TO.P,C1,2*%
%TO.N,GND*%
X154000000Y-82900000D03*
%TD*%
D25*
%TO.N,GND*%
X142250000Y-84250000D03*
X140750000Y-73500000D03*
X140750000Y-86500000D03*
X152750000Y-83250000D03*
X140000000Y-90250000D03*
X143000000Y-82000000D03*
X139750000Y-70000000D03*
X142250000Y-71250000D03*
X140000000Y-77250000D03*
%TO.N,/IdealDiode/Vout*%
X146500000Y-85000000D03*
X141000000Y-88750000D03*
%TD*%
D26*
%TO.N,/IdealDiode1/Vin*%
X141660000Y-74847500D02*
X141660000Y-75313984D01*
X141660000Y-75313984D02*
X142346016Y-76000000D01*
D27*
X144464000Y-76000000D02*
X144464000Y-75347182D01*
D26*
X142346016Y-76000000D02*
X144464000Y-76000000D01*
%TO.N,GND*%
X142160000Y-84340000D02*
X142250000Y-84250000D01*
X142160000Y-84972500D02*
X142160000Y-84340000D01*
X142160000Y-85910000D02*
X141660000Y-86410000D01*
X142160000Y-84972500D02*
X142160000Y-85910000D01*
X142160000Y-72910000D02*
X141660000Y-73410000D01*
X142160000Y-71972500D02*
X142160000Y-72910000D01*
X140840000Y-73410000D02*
X140750000Y-73500000D01*
X141660000Y-73410000D02*
X140840000Y-73410000D01*
X140840000Y-86410000D02*
X140750000Y-86500000D01*
X141660000Y-86410000D02*
X140840000Y-86410000D01*
X153100000Y-82900000D02*
X152750000Y-83250000D01*
X154000000Y-82900000D02*
X153100000Y-82900000D01*
X140150000Y-90100000D02*
X140000000Y-90250000D01*
X141000000Y-90100000D02*
X140150000Y-90100000D01*
X143050000Y-81950000D02*
X143000000Y-82000000D01*
X144000000Y-81950000D02*
X143050000Y-81950000D01*
X139000000Y-70000000D02*
X139750000Y-70000000D01*
X142160000Y-71340000D02*
X142250000Y-71250000D01*
X142160000Y-71972500D02*
X142160000Y-71340000D01*
X140150000Y-77100000D02*
X140000000Y-77250000D01*
X141000000Y-77100000D02*
X140150000Y-77100000D01*
%TO.N,/IdealDiode/Vout*%
X136000000Y-70900000D02*
X137000000Y-69900000D01*
X136000000Y-71777246D02*
X136000000Y-70900000D01*
X139070254Y-74847500D02*
X136000000Y-71777246D01*
X141160000Y-74847500D02*
X139070254Y-74847500D01*
X143535000Y-69000000D02*
X148785000Y-74250000D01*
X137900000Y-69000000D02*
X143535000Y-69000000D01*
X137000000Y-69900000D02*
X137900000Y-69000000D01*
%TO.N,Net-(U2-Vdd)*%
X139422500Y-71972500D02*
X139000000Y-71550000D01*
X141160000Y-71972500D02*
X139422500Y-71972500D01*
X137000000Y-71550000D02*
X139000000Y-71550000D01*
D27*
%TO.N,/IdealDiode1/Vin*%
X142091058Y-79500000D02*
X144464000Y-77127058D01*
X144464000Y-77127058D02*
X144464000Y-76000000D01*
X140801000Y-79500000D02*
X142091058Y-79500000D01*
D26*
%TO.N,Net-(Q2-G)*%
X143167000Y-72148000D02*
X144065000Y-71250000D01*
X143167000Y-74059000D02*
X143167000Y-72148000D01*
X142160000Y-74847500D02*
X142378500Y-74847500D01*
X142378500Y-74847500D02*
X143167000Y-74059000D01*
%TO.N,/IdealDiode/Vout*%
X146500000Y-85000000D02*
X146000000Y-85500000D01*
X146000000Y-85500000D02*
X149285000Y-88785000D01*
X141160000Y-88590000D02*
X141000000Y-88750000D01*
X141160000Y-87847500D02*
X141160000Y-88590000D01*
X145725000Y-85225000D02*
X146000000Y-85500000D01*
X145725000Y-83550000D02*
X145725000Y-85225000D01*
%TO.N,Net-(U1-Vdd)*%
X145600000Y-81900000D02*
X144000000Y-83500000D01*
X145725000Y-81900000D02*
X145600000Y-81900000D01*
X142000000Y-83500000D02*
X144000000Y-83500000D01*
X141160000Y-84340000D02*
X142000000Y-83500000D01*
X141160000Y-84972500D02*
X141160000Y-84340000D01*
%TO.N,/IdealDiode/Vin*%
X143558516Y-90212500D02*
X144462500Y-90212500D01*
X141660000Y-88313984D02*
X143558516Y-90212500D01*
X141660000Y-87847500D02*
X141660000Y-88313984D01*
D27*
X144462500Y-90212500D02*
X142374000Y-92301000D01*
D26*
%TO.N,Net-(Q1-G)*%
X142502500Y-87847500D02*
X144565000Y-85785000D01*
X142160000Y-87847500D02*
X142502500Y-87847500D01*
D27*
%TO.N,/IdealDiode/Vout*%
X149535000Y-75000000D02*
X148785000Y-74250000D01*
X158000000Y-75000000D02*
X149535000Y-75000000D01*
X149500000Y-89000000D02*
X149285000Y-88785000D01*
X157676041Y-89000000D02*
X149500000Y-89000000D01*
%TO.N,/IdealDiode/Vin*%
X142374000Y-92301000D02*
X141000000Y-92301000D01*
X144890000Y-89785000D02*
X144462500Y-90212500D01*
X137965000Y-92500000D02*
X140801000Y-92500000D01*
X140801000Y-92500000D02*
X141000000Y-92301000D01*
D28*
%TO.N,/IdealDiode/Vout*%
X154000000Y-81000000D02*
X158000000Y-81000000D01*
D27*
X158500000Y-80500000D02*
X158000000Y-81000000D01*
X158000000Y-81000000D02*
X158000000Y-88676041D01*
X169000000Y-80500000D02*
X158500000Y-80500000D01*
X158000000Y-88676041D02*
X157676041Y-89000000D01*
X158000000Y-75000000D02*
X158000000Y-81000000D01*
%TO.N,/IdealDiode1/Vin*%
X140801000Y-79500000D02*
X141000000Y-79301000D01*
X137965000Y-79500000D02*
X140801000Y-79500000D01*
%TD*%
M02*
