M48
; DRILL file {KiCad 9.0.1} date 2025-07-03T11:12:24+0200
; FORMAT={-:-/ absolute / metric / decimal}
; #@! TF.CreationDate,2025-07-03T11:12:24+02:00
; #@! TF.GenerationSoftware,Kicad,Pcbnew,9.0.1
; #@! TF.FileFunction,Plated,1,2,PTH
FMAT,2
METRIC
; #@! TA.AperFunction,Plated,PTH,ViaDrill
T1C0.300
; #@! TA.AperFunction,Plated,PTH,ComponentDrill
T2C1.020
; #@! TA.AperFunction,Plated,PTH,ComponentDrill
T3C1.200
%
G90
G05
T1
X136.0Y-69.75
X136.0Y-71.5
X136.5Y-86.5
X136.75Y-84.75
X140.067Y-73.183
X140.2Y-85.8
X141.0Y-71.25
X142.75Y-84.5
X144.25Y-70.25
X145.0Y-79.75
X145.0Y-94.0
X146.75Y-84.5
X154.0Y-83.75
T2
X137.965Y-76.5
X137.965Y-79.5
X137.965Y-91.5
X137.965Y-94.5
X169.0Y-80.5
X169.0Y-83.5
T3
X157.676Y-89.0
X158.0Y-75.0
X162.676Y-89.0
X163.0Y-75.0
M30
