%TF.GenerationSoftware,KiCad,Pcbnew,9.0.1*%
%TF.CreationDate,2025-07-03T11:12:22+02:00*%
%TF.ProjectId,BatteryBackup,42617474-6572-4794-9261-636b75702e6b,rev?*%
%TF.SameCoordinates,Original*%
%TF.FileFunction,Copper,L2,Bot*%
%TF.FilePolarity,Positive*%
%FSLAX46Y46*%
G04 Gerber Fmt 4.6, Leading zero omitted, Abs format (unit mm)*
G04 Created by KiCad (PCBNEW 9.0.1) date 2025-07-03 11:12:22*
%MOMM*%
%LPD*%
G01*
G04 APERTURE LIST*
G04 Aperture macros list*
%AMRoundRect*
0 Rectangle with rounded corners*
0 $1 Rounding radius*
0 $2 $3 $4 $5 $6 $7 $8 $9 X,Y pos of 4 corners*
0 Add a 4 corners polygon primitive as box body*
4,1,4,$2,$3,$4,$5,$6,$7,$8,$9,$2,$3,0*
0 Add four circle primitives for the rounded corners*
1,1,$1+$1,$2,$3*
1,1,$1+$1,$4,$5*
1,1,$1+$1,$6,$7*
1,1,$1+$1,$8,$9*
0 Add four rect primitives between the rounded corners*
20,1,$1+$1,$2,$3,$4,$5,0*
20,1,$1+$1,$4,$5,$6,$7,0*
20,1,$1+$1,$6,$7,$8,$9,0*
20,1,$1+$1,$8,$9,$2,$3,0*%
G04 Aperture macros list end*
%TA.AperFunction,ComponentPad*%
%ADD10RoundRect,0.250001X0.759999X-0.499999X0.759999X0.499999X-0.759999X0.499999X-0.759999X-0.499999X0*%
%TD*%
%TA.AperFunction,ComponentPad*%
%ADD11O,2.020000X1.500000*%
%TD*%
%TA.AperFunction,ComponentPad*%
%ADD12RoundRect,0.250001X-0.759999X0.499999X-0.759999X-0.499999X0.759999X-0.499999X0.759999X0.499999X0*%
%TD*%
%TA.AperFunction,ComponentPad*%
%ADD13R,2.400000X2.400000*%
%TD*%
%TA.AperFunction,ComponentPad*%
%ADD14C,2.400000*%
%TD*%
%TA.AperFunction,ViaPad*%
%ADD15C,0.600000*%
%TD*%
%TA.AperFunction,Conductor*%
%ADD16C,0.254000*%
%TD*%
G04 APERTURE END LIST*
D10*
%TO.P,J1,1,Pin_1*%
%TO.N,/IdealDiode/Vin*%
X137965000Y-94500000D03*
D11*
%TO.P,J1,2,Pin_2*%
%TO.N,GND*%
X137965000Y-91500000D03*
%TD*%
D10*
%TO.P,J2,1,Pin_1*%
%TO.N,/IdealDiode1/Vin*%
X137965000Y-79500000D03*
D11*
%TO.P,J2,2,Pin_2*%
%TO.N,GND*%
X137965000Y-76500000D03*
%TD*%
D12*
%TO.P,J3,1,Pin_1*%
%TO.N,/IdealDiode/Vout*%
X169000000Y-80500000D03*
D11*
%TO.P,J3,2,Pin_2*%
%TO.N,GND*%
X169000000Y-83500000D03*
%TD*%
D13*
%TO.P,C2,1*%
%TO.N,/IdealDiode/Vout*%
X157676041Y-89000000D03*
D14*
%TO.P,C2,2*%
%TO.N,GND*%
X162676041Y-89000000D03*
%TD*%
D13*
%TO.P,C7,1*%
%TO.N,/IdealDiode/Vout*%
X158000000Y-75000000D03*
D14*
%TO.P,C7,2*%
%TO.N,GND*%
X163000000Y-75000000D03*
%TD*%
D15*
%TO.N,GND*%
X154000000Y-83750000D03*
%TO.N,/IdealDiode/Vout*%
X146750000Y-84500000D03*
X142750000Y-84500000D03*
%TO.N,Net-(Q2-G)*%
X144250000Y-70250000D03*
X141000000Y-71250000D03*
%TO.N,Net-(D1-A1)*%
X140200000Y-85800000D03*
X145000000Y-94000000D03*
%TO.N,Net-(D2-A1)*%
X140066750Y-73183250D03*
X145000000Y-79750000D03*
%TO.N,GND*%
X136000000Y-69750000D03*
X136000000Y-71500000D03*
X136500000Y-86500000D03*
X136750000Y-84750000D03*
%TD*%
D16*
%TO.N,/IdealDiode/Vout*%
X142750000Y-84500000D02*
X146750000Y-84500000D01*
%TO.N,Net-(Q2-G)*%
X141000000Y-71250000D02*
X143250000Y-71250000D01*
X143250000Y-71250000D02*
X144250000Y-70250000D01*
%TO.N,Net-(D1-A1)*%
X145000000Y-90600000D02*
X140200000Y-85800000D01*
X145000000Y-94000000D02*
X145000000Y-90600000D01*
%TO.N,Net-(D2-A1)*%
X140066750Y-74816750D02*
X140066750Y-73183250D01*
X145000000Y-79750000D02*
X140066750Y-74816750D01*
%TD*%
%TA.AperFunction,Conductor*%
%TO.N,GND*%
G36*
X177442539Y-67520185D02*
G01*
X177488294Y-67572989D01*
X177499500Y-67624500D01*
X177499500Y-98375500D01*
X177479815Y-98442539D01*
X177427011Y-98488294D01*
X177375500Y-98499500D01*
X129624500Y-98499500D01*
X129557461Y-98479815D01*
X129511706Y-98427011D01*
X129500500Y-98375500D01*
X129500500Y-92885258D01*
X131894500Y-92885258D01*
X131894500Y-93114741D01*
X131913625Y-93260000D01*
X131924452Y-93342238D01*
X131975123Y-93531348D01*
X131983842Y-93563887D01*
X132071650Y-93775876D01*
X132071657Y-93775890D01*
X132186392Y-93974617D01*
X132326081Y-94156661D01*
X132326089Y-94156670D01*
X132488330Y-94318911D01*
X132488338Y-94318918D01*
X132670382Y-94458607D01*
X132670385Y-94458608D01*
X132670388Y-94458611D01*
X132869112Y-94573344D01*
X132869117Y-94573346D01*
X132869123Y-94573349D01*
X132960480Y-94611190D01*
X133081113Y-94661158D01*
X133302762Y-94720548D01*
X133530266Y-94750500D01*
X133530273Y-94750500D01*
X133759727Y-94750500D01*
X133759734Y-94750500D01*
X133987238Y-94720548D01*
X134208887Y-94661158D01*
X134420888Y-94573344D01*
X134619612Y-94458611D01*
X134801661Y-94318919D01*
X134801665Y-94318914D01*
X134801670Y-94318911D01*
X134963911Y-94156670D01*
X134963914Y-94156665D01*
X134963919Y-94156661D01*
X135103611Y-93974612D01*
X135117830Y-93949984D01*
X136454500Y-93949984D01*
X136454500Y-95050015D01*
X136465000Y-95152795D01*
X136465001Y-95152796D01*
X136520186Y-95319335D01*
X136520187Y-95319337D01*
X136612286Y-95468651D01*
X136612289Y-95468655D01*
X136736344Y-95592710D01*
X136736348Y-95592713D01*
X136885662Y-95684812D01*
X136885664Y-95684813D01*
X136885666Y-95684814D01*
X137052203Y-95739999D01*
X137154992Y-95750500D01*
X137154997Y-95750500D01*
X138775003Y-95750500D01*
X138775008Y-95750500D01*
X138877797Y-95739999D01*
X139044334Y-95684814D01*
X139193655Y-95592711D01*
X139317711Y-95468655D01*
X139409814Y-95319334D01*
X139464999Y-95152797D01*
X139475500Y-95050008D01*
X139475500Y-93949992D01*
X139464999Y-93847203D01*
X139409814Y-93680666D01*
X139337783Y-93563887D01*
X139317713Y-93531348D01*
X139317710Y-93531344D01*
X139193655Y-93407289D01*
X139193651Y-93407286D01*
X139044337Y-93315187D01*
X139044335Y-93315186D01*
X138961065Y-93287593D01*
X138877797Y-93260001D01*
X138877795Y-93260000D01*
X138775015Y-93249500D01*
X138775008Y-93249500D01*
X137154992Y-93249500D01*
X137154984Y-93249500D01*
X137052204Y-93260000D01*
X137052203Y-93260001D01*
X136885664Y-93315186D01*
X136885662Y-93315187D01*
X136736348Y-93407286D01*
X136736344Y-93407289D01*
X136612289Y-93531344D01*
X136612286Y-93531348D01*
X136520187Y-93680662D01*
X136520186Y-93680664D01*
X136465001Y-93847203D01*
X136465000Y-93847204D01*
X136454500Y-93949984D01*
X135117830Y-93949984D01*
X135218344Y-93775888D01*
X135306158Y-93563887D01*
X135365548Y-93342238D01*
X135395500Y-93114734D01*
X135395500Y-92885266D01*
X135365548Y-92657762D01*
X135306158Y-92436113D01*
X135218344Y-92224112D01*
X135103611Y-92025388D01*
X135103608Y-92025385D01*
X135103607Y-92025382D01*
X134963918Y-91843338D01*
X134963911Y-91843330D01*
X134801670Y-91681089D01*
X134801661Y-91681081D01*
X134619617Y-91541392D01*
X134420890Y-91426657D01*
X134420876Y-91426650D01*
X134360459Y-91401625D01*
X134208887Y-91338842D01*
X133987238Y-91279452D01*
X133949215Y-91274446D01*
X133763539Y-91250000D01*
X136479016Y-91250000D01*
X137520440Y-91250000D01*
X137489755Y-91303147D01*
X137455000Y-91432857D01*
X137455000Y-91567143D01*
X137489755Y-91696853D01*
X137520440Y-91750000D01*
X136479016Y-91750000D01*
X136485781Y-91792716D01*
X136546581Y-91979837D01*
X136635904Y-92155143D01*
X136751555Y-92314321D01*
X136890678Y-92453444D01*
X137049856Y-92569095D01*
X137225164Y-92658418D01*
X137412294Y-92719221D01*
X137606618Y-92750000D01*
X137715000Y-92750000D01*
X137715000Y-91944560D01*
X137768147Y-91975245D01*
X137897857Y-92010000D01*
X138032143Y-92010000D01*
X138161853Y-91975245D01*
X138215000Y-91944560D01*
X138215000Y-92750000D01*
X138323382Y-92750000D01*
X138517705Y-92719221D01*
X138704835Y-92658418D01*
X138880143Y-92569095D01*
X139039321Y-92453444D01*
X139178444Y-92314321D01*
X139294095Y-92155143D01*
X139383418Y-91979837D01*
X139444218Y-91792716D01*
X139450984Y-91750000D01*
X138409560Y-91750000D01*
X138440245Y-91696853D01*
X138475000Y-91567143D01*
X138475000Y-91432857D01*
X138440245Y-91303147D01*
X138409560Y-91250000D01*
X139450984Y-91250000D01*
X139444218Y-91207283D01*
X139383418Y-91020162D01*
X139294095Y-90844856D01*
X139178444Y-90685678D01*
X139039321Y-90546555D01*
X138880143Y-90430904D01*
X138704835Y-90341581D01*
X138517705Y-90280778D01*
X138323382Y-90250000D01*
X138215000Y-90250000D01*
X138215000Y-91055439D01*
X138161853Y-91024755D01*
X138032143Y-90990000D01*
X137897857Y-90990000D01*
X137768147Y-91024755D01*
X137715000Y-91055439D01*
X137715000Y-90250000D01*
X137606618Y-90250000D01*
X137412294Y-90280778D01*
X137225164Y-90341581D01*
X137049856Y-90430904D01*
X136890678Y-90546555D01*
X136751555Y-90685678D01*
X136635904Y-90844856D01*
X136546581Y-91020162D01*
X136485781Y-91207283D01*
X136479016Y-91250000D01*
X133763539Y-91250000D01*
X133759741Y-91249500D01*
X133759734Y-91249500D01*
X133530266Y-91249500D01*
X133530258Y-91249500D01*
X133313715Y-91278009D01*
X133302762Y-91279452D01*
X133214330Y-91303147D01*
X133081112Y-91338842D01*
X132869123Y-91426650D01*
X132869109Y-91426657D01*
X132670382Y-91541392D01*
X132488338Y-91681081D01*
X132326081Y-91843338D01*
X132186392Y-92025382D01*
X132071657Y-92224109D01*
X132071650Y-92224123D01*
X131983842Y-92436112D01*
X131924453Y-92657759D01*
X131924451Y-92657770D01*
X131894500Y-92885258D01*
X129500500Y-92885258D01*
X129500500Y-85721153D01*
X139399500Y-85721153D01*
X139399500Y-85878846D01*
X139430261Y-86033489D01*
X139430264Y-86033501D01*
X139490602Y-86179172D01*
X139490609Y-86179185D01*
X139578210Y-86310288D01*
X139578213Y-86310292D01*
X139689707Y-86421786D01*
X139689711Y-86421789D01*
X139820814Y-86509390D01*
X139820827Y-86509397D01*
X139888961Y-86537618D01*
X139966503Y-86569737D01*
X140074185Y-86591156D01*
X140136092Y-86623539D01*
X140137672Y-86625091D01*
X144336181Y-90823600D01*
X144369666Y-90884923D01*
X144372500Y-90911281D01*
X144372500Y-93460642D01*
X144352815Y-93527681D01*
X144351602Y-93529533D01*
X144290609Y-93620814D01*
X144290602Y-93620827D01*
X144230264Y-93766498D01*
X144230261Y-93766510D01*
X144199500Y-93921153D01*
X144199500Y-94078846D01*
X144230261Y-94233489D01*
X144230264Y-94233501D01*
X144290602Y-94379172D01*
X144290609Y-94379185D01*
X144378210Y-94510288D01*
X144378213Y-94510292D01*
X144489707Y-94621786D01*
X144489711Y-94621789D01*
X144620814Y-94709390D01*
X144620827Y-94709397D01*
X144720060Y-94750500D01*
X144766503Y-94769737D01*
X144921153Y-94800499D01*
X144921156Y-94800500D01*
X144921158Y-94800500D01*
X145078844Y-94800500D01*
X145078845Y-94800499D01*
X145233497Y-94769737D01*
X145352251Y-94720548D01*
X145379172Y-94709397D01*
X145379172Y-94709396D01*
X145379179Y-94709394D01*
X145510289Y-94621789D01*
X145621789Y-94510289D01*
X145709394Y-94379179D01*
X145769737Y-94233497D01*
X145800500Y-94078842D01*
X145800500Y-93921158D01*
X145800500Y-93921155D01*
X145800499Y-93921153D01*
X145793275Y-93884835D01*
X145769737Y-93766503D01*
X145769735Y-93766498D01*
X145709397Y-93620827D01*
X145709390Y-93620814D01*
X145648398Y-93529533D01*
X145627520Y-93462855D01*
X145627500Y-93460642D01*
X145627500Y-90538194D01*
X145603386Y-90416970D01*
X145603385Y-90416969D01*
X145603385Y-90416965D01*
X145582256Y-90365955D01*
X145556086Y-90302773D01*
X145556079Y-90302760D01*
X145487412Y-90199993D01*
X145487411Y-90199992D01*
X145400008Y-90112589D01*
X143039554Y-87752135D01*
X155975541Y-87752135D01*
X155975541Y-90247870D01*
X155975542Y-90247876D01*
X155981949Y-90307483D01*
X156032243Y-90442328D01*
X156032247Y-90442335D01*
X156118493Y-90557544D01*
X156118496Y-90557547D01*
X156233705Y-90643793D01*
X156233712Y-90643797D01*
X156368558Y-90694091D01*
X156368557Y-90694091D01*
X156375485Y-90694835D01*
X156428168Y-90700500D01*
X158923913Y-90700499D01*
X158983524Y-90694091D01*
X159118372Y-90643796D01*
X159233587Y-90557546D01*
X159319837Y-90442331D01*
X159370132Y-90307483D01*
X159376541Y-90247873D01*
X159376540Y-88888575D01*
X160976041Y-88888575D01*
X160976041Y-89111424D01*
X161005126Y-89332354D01*
X161005129Y-89332367D01*
X161062804Y-89547618D01*
X161148086Y-89753502D01*
X161148095Y-89753520D01*
X161259505Y-89946491D01*
X161259514Y-89946504D01*
X161310081Y-90012403D01*
X161310084Y-90012403D01*
X162111428Y-89211059D01*
X162116930Y-89231591D01*
X162195922Y-89368408D01*
X162307633Y-89480119D01*
X162444450Y-89559111D01*
X162464981Y-89564612D01*
X161663636Y-90365955D01*
X161663636Y-90365956D01*
X161729548Y-90416533D01*
X161922526Y-90527949D01*
X161922538Y-90527954D01*
X162128422Y-90613236D01*
X162343673Y-90670911D01*
X162343686Y-90670914D01*
X162564616Y-90700000D01*
X162787466Y-90700000D01*
X163008395Y-90670914D01*
X163008408Y-90670911D01*
X163223659Y-90613236D01*
X163429543Y-90527954D01*
X163429555Y-90527949D01*
X163622539Y-90416530D01*
X163688444Y-90365957D01*
X163688445Y-90365956D01*
X162887100Y-89564612D01*
X162907632Y-89559111D01*
X163044449Y-89480119D01*
X163156160Y-89368408D01*
X163235152Y-89231591D01*
X163240653Y-89211059D01*
X164041997Y-90012404D01*
X164041998Y-90012403D01*
X164092571Y-89946498D01*
X164203990Y-89753514D01*
X164203995Y-89753502D01*
X164289277Y-89547618D01*
X164346952Y-89332367D01*
X164346955Y-89332354D01*
X164376041Y-89111424D01*
X164376041Y-88888575D01*
X164346955Y-88667645D01*
X164346952Y-88667632D01*
X164289277Y-88452381D01*
X164203995Y-88246497D01*
X164203990Y-88246485D01*
X164092574Y-88053507D01*
X164041997Y-87987595D01*
X164041996Y-87987595D01*
X163240653Y-88788939D01*
X163235152Y-88768409D01*
X163156160Y-88631592D01*
X163044449Y-88519881D01*
X162907632Y-88440889D01*
X162887099Y-88435387D01*
X163688444Y-87634043D01*
X163688444Y-87634040D01*
X163622545Y-87583473D01*
X163622532Y-87583464D01*
X163429561Y-87472054D01*
X163429543Y-87472045D01*
X163223659Y-87386763D01*
X163008408Y-87329088D01*
X163008395Y-87329085D01*
X162787466Y-87300000D01*
X162564616Y-87300000D01*
X162343686Y-87329085D01*
X162343673Y-87329088D01*
X162128422Y-87386763D01*
X161922538Y-87472045D01*
X161922520Y-87472054D01*
X161729552Y-87583462D01*
X161663636Y-87634042D01*
X162464982Y-88435387D01*
X162444450Y-88440889D01*
X162307633Y-88519881D01*
X162195922Y-88631592D01*
X162116930Y-88768409D01*
X162111428Y-88788940D01*
X161310083Y-87987595D01*
X161259503Y-88053511D01*
X161148095Y-88246479D01*
X161148086Y-88246497D01*
X161062804Y-88452381D01*
X161005129Y-88667632D01*
X161005126Y-88667645D01*
X160976041Y-88888575D01*
X159376540Y-88888575D01*
X159376540Y-87752128D01*
X159370426Y-87695248D01*
X159370426Y-87695246D01*
X159370133Y-87692519D01*
X159319838Y-87557671D01*
X159319834Y-87557664D01*
X159233588Y-87442455D01*
X159233585Y-87442452D01*
X159118376Y-87356206D01*
X159118369Y-87356202D01*
X158983523Y-87305908D01*
X158983524Y-87305908D01*
X158923924Y-87299501D01*
X158923922Y-87299500D01*
X158923914Y-87299500D01*
X158923905Y-87299500D01*
X156428170Y-87299500D01*
X156428164Y-87299501D01*
X156368557Y-87305908D01*
X156233712Y-87356202D01*
X156233705Y-87356206D01*
X156118496Y-87442452D01*
X156118493Y-87442455D01*
X156032247Y-87557664D01*
X156032243Y-87557671D01*
X155981949Y-87692517D01*
X155975542Y-87752116D01*
X155975542Y-87752123D01*
X155975541Y-87752135D01*
X143039554Y-87752135D01*
X141025091Y-85737672D01*
X140991606Y-85676349D01*
X140991183Y-85674323D01*
X140969737Y-85566503D01*
X140954651Y-85530082D01*
X140909397Y-85420827D01*
X140909390Y-85420814D01*
X140821789Y-85289711D01*
X140821786Y-85289707D01*
X140710292Y-85178213D01*
X140710288Y-85178210D01*
X140579185Y-85090609D01*
X140579172Y-85090602D01*
X140433501Y-85030264D01*
X140433489Y-85030261D01*
X140278845Y-84999500D01*
X140278842Y-84999500D01*
X140121158Y-84999500D01*
X140121155Y-84999500D01*
X139966510Y-85030261D01*
X139966498Y-85030264D01*
X139820827Y-85090602D01*
X139820814Y-85090609D01*
X139689711Y-85178210D01*
X139689707Y-85178213D01*
X139578213Y-85289707D01*
X139578210Y-85289711D01*
X139490609Y-85420814D01*
X139490602Y-85420827D01*
X139430264Y-85566498D01*
X139430261Y-85566510D01*
X139399500Y-85721153D01*
X129500500Y-85721153D01*
X129500500Y-84421153D01*
X141949500Y-84421153D01*
X141949500Y-84578846D01*
X141980261Y-84733489D01*
X141980264Y-84733501D01*
X142040602Y-84879172D01*
X142040609Y-84879185D01*
X142128210Y-85010288D01*
X142128213Y-85010292D01*
X142239707Y-85121786D01*
X142239711Y-85121789D01*
X142370814Y-85209390D01*
X142370827Y-85209397D01*
X142516498Y-85269735D01*
X142516503Y-85269737D01*
X142671153Y-85300499D01*
X142671156Y-85300500D01*
X142671158Y-85300500D01*
X142828844Y-85300500D01*
X142828845Y-85300499D01*
X142983497Y-85269737D01*
X143129179Y-85209394D01*
X143220466Y-85148398D01*
X143287143Y-85127520D01*
X143289357Y-85127500D01*
X146210643Y-85127500D01*
X146277682Y-85147185D01*
X146279534Y-85148398D01*
X146370814Y-85209390D01*
X146370827Y-85209397D01*
X146516498Y-85269735D01*
X146516503Y-85269737D01*
X146671153Y-85300499D01*
X146671156Y-85300500D01*
X146671158Y-85300500D01*
X146828844Y-85300500D01*
X146828845Y-85300499D01*
X146983497Y-85269737D01*
X147129179Y-85209394D01*
X147260289Y-85121789D01*
X147371789Y-85010289D01*
X147459394Y-84879179D01*
X147519737Y-84733497D01*
X147550500Y-84578842D01*
X147550500Y-84421158D01*
X147550500Y-84421155D01*
X147550499Y-84421153D01*
X147519737Y-84266503D01*
X147473611Y-84155143D01*
X147459397Y-84120827D01*
X147459390Y-84120814D01*
X147371789Y-83989711D01*
X147371786Y-83989707D01*
X147260292Y-83878213D01*
X147260288Y-83878210D01*
X147167241Y-83816038D01*
X147129184Y-83790609D01*
X147129172Y-83790602D01*
X146983501Y-83730264D01*
X146983489Y-83730261D01*
X146828845Y-83699500D01*
X146828842Y-83699500D01*
X146671158Y-83699500D01*
X146671155Y-83699500D01*
X146516510Y-83730261D01*
X146516498Y-83730264D01*
X146370827Y-83790602D01*
X146370814Y-83790609D01*
X146279534Y-83851602D01*
X146212857Y-83872480D01*
X146210643Y-83872500D01*
X143289357Y-83872500D01*
X143222318Y-83852815D01*
X143220466Y-83851602D01*
X143129185Y-83790609D01*
X143129172Y-83790602D01*
X142983501Y-83730264D01*
X142983489Y-83730261D01*
X142828845Y-83699500D01*
X142828842Y-83699500D01*
X142671158Y-83699500D01*
X142671155Y-83699500D01*
X142516510Y-83730261D01*
X142516498Y-83730264D01*
X142370827Y-83790602D01*
X142370814Y-83790609D01*
X142239711Y-83878210D01*
X142239707Y-83878213D01*
X142128213Y-83989707D01*
X142128210Y-83989711D01*
X142040609Y-84120814D01*
X142040602Y-84120827D01*
X141980264Y-84266498D01*
X141980261Y-84266510D01*
X141949500Y-84421153D01*
X129500500Y-84421153D01*
X129500500Y-83250000D01*
X167514016Y-83250000D01*
X168555440Y-83250000D01*
X168524755Y-83303147D01*
X168490000Y-83432857D01*
X168490000Y-83567143D01*
X168524755Y-83696853D01*
X168555440Y-83750000D01*
X167514016Y-83750000D01*
X167520781Y-83792716D01*
X167581581Y-83979837D01*
X167670904Y-84155143D01*
X167786555Y-84314321D01*
X167925678Y-84453444D01*
X168084856Y-84569095D01*
X168260164Y-84658418D01*
X168447294Y-84719221D01*
X168641618Y-84750000D01*
X168750000Y-84750000D01*
X168750000Y-83944560D01*
X168803147Y-83975245D01*
X168932857Y-84010000D01*
X169067143Y-84010000D01*
X169196853Y-83975245D01*
X169250000Y-83944560D01*
X169250000Y-84750000D01*
X169358382Y-84750000D01*
X169552705Y-84719221D01*
X169739835Y-84658418D01*
X169915143Y-84569095D01*
X170074321Y-84453444D01*
X170213444Y-84314321D01*
X170329095Y-84155143D01*
X170418418Y-83979837D01*
X170479218Y-83792716D01*
X170485984Y-83750000D01*
X169444560Y-83750000D01*
X169475245Y-83696853D01*
X169510000Y-83567143D01*
X169510000Y-83432857D01*
X169475245Y-83303147D01*
X169444560Y-83250000D01*
X170485984Y-83250000D01*
X170479218Y-83207283D01*
X170418418Y-83020162D01*
X170329095Y-82844856D01*
X170213444Y-82685678D01*
X170074321Y-82546555D01*
X169915143Y-82430904D01*
X169739835Y-82341581D01*
X169552705Y-82280778D01*
X169358382Y-82250000D01*
X169250000Y-82250000D01*
X169250000Y-83055439D01*
X169196853Y-83024755D01*
X169067143Y-82990000D01*
X168932857Y-82990000D01*
X168803147Y-83024755D01*
X168750000Y-83055439D01*
X168750000Y-82250000D01*
X168641618Y-82250000D01*
X168447294Y-82280778D01*
X168260164Y-82341581D01*
X168084856Y-82430904D01*
X167925678Y-82546555D01*
X167786555Y-82685678D01*
X167670904Y-82844856D01*
X167581581Y-83020162D01*
X167520781Y-83207283D01*
X167514016Y-83250000D01*
X129500500Y-83250000D01*
X129500500Y-81885258D01*
X171569500Y-81885258D01*
X171569500Y-82114741D01*
X171587308Y-82250000D01*
X171599452Y-82342238D01*
X171599453Y-82342240D01*
X171658842Y-82563887D01*
X171746650Y-82775876D01*
X171746657Y-82775890D01*
X171861392Y-82974617D01*
X172001081Y-83156661D01*
X172001089Y-83156670D01*
X172163330Y-83318911D01*
X172163338Y-83318918D01*
X172345382Y-83458607D01*
X172345385Y-83458608D01*
X172345388Y-83458611D01*
X172544112Y-83573344D01*
X172544117Y-83573346D01*
X172544123Y-83573349D01*
X172635480Y-83611190D01*
X172756113Y-83661158D01*
X172977762Y-83720548D01*
X173205266Y-83750500D01*
X173205273Y-83750500D01*
X173434727Y-83750500D01*
X173434734Y-83750500D01*
X173662238Y-83720548D01*
X173883887Y-83661158D01*
X174095888Y-83573344D01*
X174294612Y-83458611D01*
X174476661Y-83318919D01*
X174476665Y-83318914D01*
X174476670Y-83318911D01*
X174638911Y-83156670D01*
X174638914Y-83156665D01*
X174638919Y-83156661D01*
X174778611Y-82974612D01*
X174893344Y-82775888D01*
X174981158Y-82563887D01*
X175040548Y-82342238D01*
X175070500Y-82114734D01*
X175070500Y-81885266D01*
X175040548Y-81657762D01*
X174981158Y-81436113D01*
X174893344Y-81224112D01*
X174778611Y-81025388D01*
X174778608Y-81025385D01*
X174778607Y-81025382D01*
X174638918Y-80843338D01*
X174638911Y-80843330D01*
X174476670Y-80681089D01*
X174476661Y-80681081D01*
X174294617Y-80541392D01*
X174257109Y-80519737D01*
X174095888Y-80426656D01*
X174095876Y-80426650D01*
X173883887Y-80338842D01*
X173662238Y-80279452D01*
X173624215Y-80274446D01*
X173434741Y-80249500D01*
X173434734Y-80249500D01*
X173205266Y-80249500D01*
X173205258Y-80249500D01*
X172988715Y-80278009D01*
X172977762Y-80279452D01*
X172884076Y-80304554D01*
X172756112Y-80338842D01*
X172544123Y-80426650D01*
X172544109Y-80426657D01*
X172345382Y-80541392D01*
X172163338Y-80681081D01*
X172001081Y-80843338D01*
X171861392Y-81025382D01*
X171746657Y-81224109D01*
X171746650Y-81224123D01*
X171658842Y-81436112D01*
X171599453Y-81657759D01*
X171599451Y-81657770D01*
X171569500Y-81885258D01*
X129500500Y-81885258D01*
X129500500Y-77885258D01*
X131894500Y-77885258D01*
X131894500Y-78114741D01*
X131913625Y-78260000D01*
X131924452Y-78342238D01*
X131975123Y-78531348D01*
X131983842Y-78563887D01*
X132071650Y-78775876D01*
X132071657Y-78775890D01*
X132186392Y-78974617D01*
X132326081Y-79156661D01*
X132326089Y-79156670D01*
X132488330Y-79318911D01*
X132488338Y-79318918D01*
X132670382Y-79458607D01*
X132670385Y-79458608D01*
X132670388Y-79458611D01*
X132869112Y-79573344D01*
X132869117Y-79573346D01*
X132869123Y-79573349D01*
X132960480Y-79611190D01*
X133081113Y-79661158D01*
X133302762Y-79720548D01*
X133530266Y-79750500D01*
X133530273Y-79750500D01*
X133759727Y-79750500D01*
X133759734Y-79750500D01*
X133987238Y-79720548D01*
X134208887Y-79661158D01*
X134420888Y-79573344D01*
X134619612Y-79458611D01*
X134801661Y-79318919D01*
X134801665Y-79318914D01*
X134801670Y-79318911D01*
X134963911Y-79156670D01*
X134963914Y-79156665D01*
X134963919Y-79156661D01*
X135103611Y-78974612D01*
X135117830Y-78949984D01*
X136454500Y-78949984D01*
X136454500Y-80050015D01*
X136465000Y-80152795D01*
X136465001Y-80152796D01*
X136520186Y-80319335D01*
X136520187Y-80319337D01*
X136612286Y-80468651D01*
X136612289Y-80468655D01*
X136736344Y-80592710D01*
X136736348Y-80592713D01*
X136885662Y-80684812D01*
X136885664Y-80684813D01*
X136885666Y-80684814D01*
X137052203Y-80739999D01*
X137154992Y-80750500D01*
X137154997Y-80750500D01*
X138775003Y-80750500D01*
X138775008Y-80750500D01*
X138877797Y-80739999D01*
X139044334Y-80684814D01*
X139193655Y-80592711D01*
X139317711Y-80468655D01*
X139409814Y-80319334D01*
X139464999Y-80152797D01*
X139475500Y-80050008D01*
X139475500Y-78949992D01*
X139464999Y-78847203D01*
X139409814Y-78680666D01*
X139337783Y-78563887D01*
X139317713Y-78531348D01*
X139317710Y-78531344D01*
X139193655Y-78407289D01*
X139193651Y-78407286D01*
X139044337Y-78315187D01*
X139044335Y-78315186D01*
X138961065Y-78287593D01*
X138877797Y-78260001D01*
X138877795Y-78260000D01*
X138775015Y-78249500D01*
X138775008Y-78249500D01*
X137154992Y-78249500D01*
X137154984Y-78249500D01*
X137052204Y-78260000D01*
X137052203Y-78260001D01*
X136885664Y-78315186D01*
X136885662Y-78315187D01*
X136736348Y-78407286D01*
X136736344Y-78407289D01*
X136612289Y-78531344D01*
X136612286Y-78531348D01*
X136520187Y-78680662D01*
X136520186Y-78680664D01*
X136465001Y-78847203D01*
X136465000Y-78847204D01*
X136454500Y-78949984D01*
X135117830Y-78949984D01*
X135218344Y-78775888D01*
X135306158Y-78563887D01*
X135365548Y-78342238D01*
X135395500Y-78114734D01*
X135395500Y-77885266D01*
X135365548Y-77657762D01*
X135306158Y-77436113D01*
X135218344Y-77224112D01*
X135103611Y-77025388D01*
X135103608Y-77025385D01*
X135103607Y-77025382D01*
X134963918Y-76843338D01*
X134963911Y-76843330D01*
X134801670Y-76681089D01*
X134801661Y-76681081D01*
X134619617Y-76541392D01*
X134420890Y-76426657D01*
X134420876Y-76426650D01*
X134360459Y-76401625D01*
X134208887Y-76338842D01*
X134091863Y-76307486D01*
X133987238Y-76279452D01*
X133949215Y-76274446D01*
X133763539Y-76250000D01*
X136479016Y-76250000D01*
X137520440Y-76250000D01*
X137489755Y-76303147D01*
X137455000Y-76432857D01*
X137455000Y-76567143D01*
X137489755Y-76696853D01*
X137520440Y-76750000D01*
X136479016Y-76750000D01*
X136485781Y-76792716D01*
X136546581Y-76979837D01*
X136635904Y-77155143D01*
X136751555Y-77314321D01*
X136890678Y-77453444D01*
X137049856Y-77569095D01*
X137225164Y-77658418D01*
X137412294Y-77719221D01*
X137606618Y-77750000D01*
X137715000Y-77750000D01*
X137715000Y-76944560D01*
X137768147Y-76975245D01*
X137897857Y-77010000D01*
X138032143Y-77010000D01*
X138161853Y-76975245D01*
X138215000Y-76944560D01*
X138215000Y-77750000D01*
X138323382Y-77750000D01*
X138517705Y-77719221D01*
X138704835Y-77658418D01*
X138880143Y-77569095D01*
X139039321Y-77453444D01*
X139178444Y-77314321D01*
X139294095Y-77155143D01*
X139383418Y-76979837D01*
X139444218Y-76792716D01*
X139450984Y-76750000D01*
X138409560Y-76750000D01*
X138440245Y-76696853D01*
X138475000Y-76567143D01*
X138475000Y-76432857D01*
X138440245Y-76303147D01*
X138409560Y-76250000D01*
X139450984Y-76250000D01*
X139444218Y-76207283D01*
X139383418Y-76020162D01*
X139294095Y-75844856D01*
X139178444Y-75685678D01*
X139039321Y-75546555D01*
X138880143Y-75430904D01*
X138704835Y-75341581D01*
X138517705Y-75280778D01*
X138323382Y-75250000D01*
X138215000Y-75250000D01*
X138215000Y-76055439D01*
X138161853Y-76024755D01*
X138032143Y-75990000D01*
X137897857Y-75990000D01*
X137768147Y-76024755D01*
X137715000Y-76055439D01*
X137715000Y-75250000D01*
X137606618Y-75250000D01*
X137412294Y-75280778D01*
X137225164Y-75341581D01*
X137049856Y-75430904D01*
X136890678Y-75546555D01*
X136751555Y-75685678D01*
X136635904Y-75844856D01*
X136546581Y-76020162D01*
X136485781Y-76207283D01*
X136479016Y-76250000D01*
X133763539Y-76250000D01*
X133759741Y-76249500D01*
X133759734Y-76249500D01*
X133530266Y-76249500D01*
X133530258Y-76249500D01*
X133313715Y-76278009D01*
X133302762Y-76279452D01*
X133214330Y-76303147D01*
X133081112Y-76338842D01*
X132869123Y-76426650D01*
X132869109Y-76426657D01*
X132670382Y-76541392D01*
X132488338Y-76681081D01*
X132326081Y-76843338D01*
X132186392Y-77025382D01*
X132071657Y-77224109D01*
X132071650Y-77224123D01*
X131983842Y-77436112D01*
X131924453Y-77657759D01*
X131924451Y-77657770D01*
X131894500Y-77885258D01*
X129500500Y-77885258D01*
X129500500Y-73104403D01*
X139266250Y-73104403D01*
X139266250Y-73262096D01*
X139297011Y-73416739D01*
X139297014Y-73416751D01*
X139357353Y-73562424D01*
X139357354Y-73562425D01*
X139357356Y-73562429D01*
X139418352Y-73653715D01*
X139439230Y-73720392D01*
X139439250Y-73722606D01*
X139439250Y-74878557D01*
X139463362Y-74999777D01*
X139463364Y-74999785D01*
X139496812Y-75080535D01*
X139510665Y-75113979D01*
X139510670Y-75113989D01*
X139579338Y-75216757D01*
X139579341Y-75216761D01*
X144174907Y-79812326D01*
X144208392Y-79873649D01*
X144208843Y-79875815D01*
X144230261Y-79983491D01*
X144230264Y-79983501D01*
X144290602Y-80129172D01*
X144290609Y-80129185D01*
X144378210Y-80260288D01*
X144378213Y-80260292D01*
X144489707Y-80371786D01*
X144489711Y-80371789D01*
X144620814Y-80459390D01*
X144620827Y-80459397D01*
X144766498Y-80519735D01*
X144766503Y-80519737D01*
X144921153Y-80550499D01*
X144921156Y-80550500D01*
X144921158Y-80550500D01*
X145078844Y-80550500D01*
X145078845Y-80550499D01*
X145233497Y-80519737D01*
X145356821Y-80468655D01*
X145379172Y-80459397D01*
X145379172Y-80459396D01*
X145379179Y-80459394D01*
X145510289Y-80371789D01*
X145621789Y-80260289D01*
X145709394Y-80129179D01*
X145769737Y-79983497D01*
X145776403Y-79949984D01*
X167489500Y-79949984D01*
X167489500Y-81050015D01*
X167500000Y-81152795D01*
X167500001Y-81152797D01*
X167523636Y-81224123D01*
X167555186Y-81319335D01*
X167555187Y-81319337D01*
X167647286Y-81468651D01*
X167647289Y-81468655D01*
X167771344Y-81592710D01*
X167771348Y-81592713D01*
X167920662Y-81684812D01*
X167920664Y-81684813D01*
X167920666Y-81684814D01*
X168087203Y-81739999D01*
X168189992Y-81750500D01*
X168189997Y-81750500D01*
X169810003Y-81750500D01*
X169810008Y-81750500D01*
X169912797Y-81739999D01*
X170079334Y-81684814D01*
X170228655Y-81592711D01*
X170352711Y-81468655D01*
X170444814Y-81319334D01*
X170499999Y-81152797D01*
X170510500Y-81050008D01*
X170510500Y-79949992D01*
X170499999Y-79847203D01*
X170444814Y-79680666D01*
X170438949Y-79671158D01*
X170352713Y-79531348D01*
X170352710Y-79531344D01*
X170228655Y-79407289D01*
X170228651Y-79407286D01*
X170079337Y-79315187D01*
X170079335Y-79315186D01*
X169996065Y-79287593D01*
X169912797Y-79260001D01*
X169912795Y-79260000D01*
X169810015Y-79249500D01*
X169810008Y-79249500D01*
X168189992Y-79249500D01*
X168189984Y-79249500D01*
X168087204Y-79260000D01*
X168087203Y-79260001D01*
X167920664Y-79315186D01*
X167920662Y-79315187D01*
X167771348Y-79407286D01*
X167771344Y-79407289D01*
X167647289Y-79531344D01*
X167647286Y-79531348D01*
X167555187Y-79680662D01*
X167555186Y-79680664D01*
X167500001Y-79847203D01*
X167500000Y-79847204D01*
X167489500Y-79949984D01*
X145776403Y-79949984D01*
X145781842Y-79922644D01*
X145781842Y-79922643D01*
X145800500Y-79828844D01*
X145800500Y-79671155D01*
X145800499Y-79671153D01*
X145769738Y-79516510D01*
X145769737Y-79516503D01*
X145745756Y-79458607D01*
X145709397Y-79370827D01*
X145709390Y-79370814D01*
X145621789Y-79239711D01*
X145621786Y-79239707D01*
X145510292Y-79128213D01*
X145510288Y-79128210D01*
X145379185Y-79040609D01*
X145379172Y-79040602D01*
X145233501Y-78980264D01*
X145233491Y-78980261D01*
X145125815Y-78958843D01*
X145063904Y-78926458D01*
X145062326Y-78924907D01*
X140730569Y-74593150D01*
X140697084Y-74531827D01*
X140694250Y-74505469D01*
X140694250Y-73752135D01*
X156299500Y-73752135D01*
X156299500Y-76247870D01*
X156299501Y-76247876D01*
X156305908Y-76307483D01*
X156356202Y-76442328D01*
X156356206Y-76442335D01*
X156442452Y-76557544D01*
X156442455Y-76557547D01*
X156557664Y-76643793D01*
X156557671Y-76643797D01*
X156692517Y-76694091D01*
X156692516Y-76694091D01*
X156699444Y-76694835D01*
X156752127Y-76700500D01*
X159247872Y-76700499D01*
X159307483Y-76694091D01*
X159442331Y-76643796D01*
X159557546Y-76557546D01*
X159643796Y-76442331D01*
X159694091Y-76307483D01*
X159700500Y-76247873D01*
X159700499Y-74888575D01*
X161300000Y-74888575D01*
X161300000Y-75111424D01*
X161329085Y-75332354D01*
X161329088Y-75332367D01*
X161386763Y-75547618D01*
X161472045Y-75753502D01*
X161472054Y-75753520D01*
X161583464Y-75946491D01*
X161583473Y-75946504D01*
X161634040Y-76012403D01*
X161634043Y-76012403D01*
X162435387Y-75211059D01*
X162440889Y-75231591D01*
X162519881Y-75368408D01*
X162631592Y-75480119D01*
X162768409Y-75559111D01*
X162788940Y-75564612D01*
X161987595Y-76365955D01*
X161987595Y-76365956D01*
X162053507Y-76416533D01*
X162246485Y-76527949D01*
X162246497Y-76527954D01*
X162452381Y-76613236D01*
X162667632Y-76670911D01*
X162667645Y-76670914D01*
X162888575Y-76700000D01*
X163111425Y-76700000D01*
X163332354Y-76670914D01*
X163332367Y-76670911D01*
X163547618Y-76613236D01*
X163753502Y-76527954D01*
X163753514Y-76527949D01*
X163946498Y-76416530D01*
X164012403Y-76365957D01*
X164012404Y-76365956D01*
X163211059Y-75564612D01*
X163231591Y-75559111D01*
X163368408Y-75480119D01*
X163480119Y-75368408D01*
X163559111Y-75231591D01*
X163564612Y-75211059D01*
X164365956Y-76012404D01*
X164365957Y-76012403D01*
X164416530Y-75946498D01*
X164527949Y-75753514D01*
X164527954Y-75753502D01*
X164613236Y-75547618D01*
X164670911Y-75332367D01*
X164670914Y-75332354D01*
X164700000Y-75111424D01*
X164700000Y-74888575D01*
X164670914Y-74667645D01*
X164670911Y-74667632D01*
X164613236Y-74452381D01*
X164527954Y-74246497D01*
X164527949Y-74246485D01*
X164416533Y-74053507D01*
X164365956Y-73987595D01*
X164365955Y-73987595D01*
X163564612Y-74788939D01*
X163559111Y-74768409D01*
X163480119Y-74631592D01*
X163368408Y-74519881D01*
X163231591Y-74440889D01*
X163211058Y-74435387D01*
X164012403Y-73634043D01*
X164012403Y-73634040D01*
X163946504Y-73583473D01*
X163946491Y-73583464D01*
X163753520Y-73472054D01*
X163753502Y-73472045D01*
X163547618Y-73386763D01*
X163332367Y-73329088D01*
X163332354Y-73329085D01*
X163111425Y-73300000D01*
X162888575Y-73300000D01*
X162667645Y-73329085D01*
X162667632Y-73329088D01*
X162452381Y-73386763D01*
X162246497Y-73472045D01*
X162246479Y-73472054D01*
X162053511Y-73583462D01*
X161987595Y-73634042D01*
X162788941Y-74435387D01*
X162768409Y-74440889D01*
X162631592Y-74519881D01*
X162519881Y-74631592D01*
X162440889Y-74768409D01*
X162435387Y-74788940D01*
X161634042Y-73987595D01*
X161583462Y-74053511D01*
X161472054Y-74246479D01*
X161472045Y-74246497D01*
X161386763Y-74452381D01*
X161329088Y-74667632D01*
X161329085Y-74667645D01*
X161300000Y-74888575D01*
X159700499Y-74888575D01*
X159700499Y-73752128D01*
X159697315Y-73722512D01*
X159694385Y-73695248D01*
X159694385Y-73695246D01*
X159694092Y-73692519D01*
X159643797Y-73557671D01*
X159643793Y-73557664D01*
X159557547Y-73442455D01*
X159557544Y-73442452D01*
X159442335Y-73356206D01*
X159442328Y-73356202D01*
X159307482Y-73305908D01*
X159307483Y-73305908D01*
X159247883Y-73299501D01*
X159247881Y-73299500D01*
X159247873Y-73299500D01*
X159247864Y-73299500D01*
X156752129Y-73299500D01*
X156752123Y-73299501D01*
X156692516Y-73305908D01*
X156557671Y-73356202D01*
X156557664Y-73356206D01*
X156442455Y-73442452D01*
X156442452Y-73442455D01*
X156356206Y-73557664D01*
X156356202Y-73557671D01*
X156305908Y-73692517D01*
X156299501Y-73752116D01*
X156299501Y-73752123D01*
X156299500Y-73752135D01*
X140694250Y-73752135D01*
X140694250Y-73722606D01*
X140713935Y-73655567D01*
X140715148Y-73653715D01*
X140776144Y-73562429D01*
X140836487Y-73416747D01*
X140867250Y-73262092D01*
X140867250Y-73104408D01*
X140867250Y-73104405D01*
X140867249Y-73104403D01*
X140836488Y-72949760D01*
X140836487Y-72949753D01*
X140836485Y-72949748D01*
X140776147Y-72804077D01*
X140776140Y-72804064D01*
X140688539Y-72672961D01*
X140688536Y-72672957D01*
X140577042Y-72561463D01*
X140577038Y-72561460D01*
X140445935Y-72473859D01*
X140445922Y-72473852D01*
X140300251Y-72413514D01*
X140300239Y-72413511D01*
X140145595Y-72382750D01*
X140145592Y-72382750D01*
X139987908Y-72382750D01*
X139987905Y-72382750D01*
X139833260Y-72413511D01*
X139833248Y-72413514D01*
X139687577Y-72473852D01*
X139687564Y-72473859D01*
X139556461Y-72561460D01*
X139556457Y-72561463D01*
X139444963Y-72672957D01*
X139444960Y-72672961D01*
X139357359Y-72804064D01*
X139357352Y-72804077D01*
X139297014Y-72949748D01*
X139297011Y-72949760D01*
X139266250Y-73104403D01*
X129500500Y-73104403D01*
X129500500Y-71171153D01*
X140199500Y-71171153D01*
X140199500Y-71328846D01*
X140230261Y-71483489D01*
X140230264Y-71483501D01*
X140290602Y-71629172D01*
X140290609Y-71629185D01*
X140378210Y-71760288D01*
X140378213Y-71760292D01*
X140489707Y-71871786D01*
X140489711Y-71871789D01*
X140620814Y-71959390D01*
X140620827Y-71959397D01*
X140766498Y-72019735D01*
X140766503Y-72019737D01*
X140921153Y-72050499D01*
X140921156Y-72050500D01*
X140921158Y-72050500D01*
X141078844Y-72050500D01*
X141078845Y-72050499D01*
X141233497Y-72019737D01*
X141379179Y-71959394D01*
X141470466Y-71898398D01*
X141537143Y-71877520D01*
X141539357Y-71877500D01*
X143311804Y-71877500D01*
X143311805Y-71877499D01*
X143433035Y-71853386D01*
X143513784Y-71819937D01*
X143547233Y-71806083D01*
X143650008Y-71737411D01*
X143737411Y-71650008D01*
X144312328Y-71075089D01*
X144373649Y-71041606D01*
X144375648Y-71041189D01*
X144483497Y-71019737D01*
X144629179Y-70959394D01*
X144760289Y-70871789D01*
X144871789Y-70760289D01*
X144959394Y-70629179D01*
X145019737Y-70483497D01*
X145050500Y-70328842D01*
X145050500Y-70171158D01*
X145050500Y-70171155D01*
X145050499Y-70171153D01*
X145019738Y-70016510D01*
X145019738Y-70016508D01*
X145019737Y-70016503D01*
X145019735Y-70016498D01*
X144959397Y-69870827D01*
X144959390Y-69870814D01*
X144871789Y-69739711D01*
X144871786Y-69739707D01*
X144760292Y-69628213D01*
X144760288Y-69628210D01*
X144629185Y-69540609D01*
X144629172Y-69540602D01*
X144483501Y-69480264D01*
X144483489Y-69480261D01*
X144328845Y-69449500D01*
X144328842Y-69449500D01*
X144171158Y-69449500D01*
X144171155Y-69449500D01*
X144016510Y-69480261D01*
X144016498Y-69480264D01*
X143870827Y-69540602D01*
X143870814Y-69540609D01*
X143739711Y-69628210D01*
X143739707Y-69628213D01*
X143628213Y-69739707D01*
X143628210Y-69739711D01*
X143540609Y-69870814D01*
X143540602Y-69870827D01*
X143480264Y-70016498D01*
X143480261Y-70016508D01*
X143458843Y-70124183D01*
X143426458Y-70186094D01*
X143424907Y-70187672D01*
X143026400Y-70586181D01*
X142965077Y-70619666D01*
X142938719Y-70622500D01*
X141539357Y-70622500D01*
X141472318Y-70602815D01*
X141470466Y-70601602D01*
X141379185Y-70540609D01*
X141379172Y-70540602D01*
X141233501Y-70480264D01*
X141233489Y-70480261D01*
X141078845Y-70449500D01*
X141078842Y-70449500D01*
X140921158Y-70449500D01*
X140921155Y-70449500D01*
X140766510Y-70480261D01*
X140766498Y-70480264D01*
X140620827Y-70540602D01*
X140620814Y-70540609D01*
X140489711Y-70628210D01*
X140489707Y-70628213D01*
X140378213Y-70739707D01*
X140378210Y-70739711D01*
X140290609Y-70870814D01*
X140290602Y-70870827D01*
X140230264Y-71016498D01*
X140230261Y-71016510D01*
X140199500Y-71171153D01*
X129500500Y-71171153D01*
X129500500Y-67624500D01*
X129520185Y-67557461D01*
X129572989Y-67511706D01*
X129624500Y-67500500D01*
X177375500Y-67500500D01*
X177442539Y-67520185D01*
G37*
%TD.AperFunction*%
%TD*%
M02*
