%TF.GenerationSoftware,KiCad,Pcbnew,9.0.1*%
%TF.CreationDate,2025-07-01T13:45:27+02:00*%
%TF.ProjectId,BatteryBackup,42617474-6572-4794-9261-636b75702e6b,rev?*%
%TF.SameCoordinates,Original*%
%TF.FileFunction,Soldermask,Top*%
%TF.FilePolarity,Negative*%
%FSLAX46Y46*%
G04 Gerber Fmt 4.6, Leading zero omitted, Abs format (unit mm)*
G04 Created by KiCad (PCBNEW 9.0.1) date 2025-07-01 13:45:27*
%MOMM*%
%LPD*%
G01*
G04 APERTURE LIST*
G04 Aperture macros list*
%AMRoundRect*
0 Rectangle with rounded corners*
0 $1 Rounding radius*
0 $2 $3 $4 $5 $6 $7 $8 $9 X,Y pos of 4 corners*
0 Add a 4 corners polygon primitive as box body*
4,1,4,$2,$3,$4,$5,$6,$7,$8,$9,$2,$3,0*
0 Add four circle primitives for the rounded corners*
1,1,$1+$1,$2,$3*
1,1,$1+$1,$4,$5*
1,1,$1+$1,$6,$7*
1,1,$1+$1,$8,$9*
0 Add four rect primitives between the rounded corners*
20,1,$1+$1,$2,$3,$4,$5,0*
20,1,$1+$1,$4,$5,$6,$7,0*
20,1,$1+$1,$6,$7,$8,$9,0*
20,1,$1+$1,$8,$9,$2,$3,0*%
%AMFreePoly0*
4,1,14,0.240000,-2.550000,-0.240000,-2.550000,-0.890000,-2.550000,-0.890000,-1.450000,-0.240000,-1.450000,-0.240000,-0.550000,-0.890000,-0.550000,-0.890000,0.550000,-0.240000,0.550000,-0.240000,1.450000,-0.890000,1.450000,-0.890000,2.550000,0.240000,2.550000,0.240000,-2.550000,0.240000,-2.550000,$1*%
%AMFreePoly1*
4,1,21,3.715000,2.450000,2.615000,2.450000,2.615000,1.550000,3.715000,1.550000,3.715000,0.450000,2.615000,0.450000,2.615000,-0.450000,3.715000,-0.450000,3.715000,-1.550000,2.615000,-1.550000,2.615000,-2.450000,3.715000,-2.450000,3.715000,-3.550000,2.615000,-3.550000,2.615000,-3.450000,-2.615000,-3.450000,-2.615000,3.450000,2.615000,3.450000,2.615000,3.550000,3.715000,3.550000,
3.715000,2.450000,3.715000,2.450000,$1*%
G04 Aperture macros list end*
%ADD10C,3.000000*%
%ADD11RoundRect,0.250001X0.759999X-0.499999X0.759999X0.499999X-0.759999X0.499999X-0.759999X-0.499999X0*%
%ADD12O,2.020000X1.500000*%
%ADD13RoundRect,0.275000X-0.290000X-0.275000X0.290000X-0.275000X0.290000X0.275000X-0.290000X0.275000X0*%
%ADD14FreePoly0,0.000000*%
%ADD15FreePoly1,0.000000*%
%ADD16RoundRect,0.200000X-0.275000X0.200000X-0.275000X-0.200000X0.275000X-0.200000X0.275000X0.200000X0*%
%ADD17RoundRect,0.250000X0.475000X-0.250000X0.475000X0.250000X-0.475000X0.250000X-0.475000X-0.250000X0*%
%ADD18RoundRect,0.250001X-0.759999X0.499999X-0.759999X-0.499999X0.759999X-0.499999X0.759999X0.499999X0*%
%ADD19RoundRect,0.225000X0.250000X-0.225000X0.250000X0.225000X-0.250000X0.225000X-0.250000X-0.225000X0*%
%ADD20R,2.400000X2.400000*%
%ADD21C,2.400000*%
%ADD22RoundRect,0.200000X0.275000X-0.200000X0.275000X0.200000X-0.275000X0.200000X-0.275000X-0.200000X0*%
%ADD23RoundRect,0.062500X0.062500X-0.350000X0.062500X0.350000X-0.062500X0.350000X-0.062500X-0.350000X0*%
%ADD24R,1.350000X1.650000*%
%ADD25RoundRect,0.250000X-0.475000X0.250000X-0.475000X-0.250000X0.475000X-0.250000X0.475000X0.250000X0*%
G04 APERTURE END LIST*
D10*
%TO.C,J1*%
X133645000Y-91000000D03*
D11*
X137965000Y-92500000D03*
D12*
X137965000Y-89500000D03*
%TD*%
D13*
%TO.C,Q1*%
X144565000Y-85785000D03*
D14*
X144890000Y-89785000D03*
D15*
X149285000Y-88785000D03*
%TD*%
D16*
%TO.C,R2*%
X137000000Y-69900000D03*
X137000000Y-71550000D03*
%TD*%
D17*
%TO.C,C6*%
X141000000Y-79000000D03*
X141000000Y-77100000D03*
%TD*%
D13*
%TO.C,Q2*%
X144065000Y-71250000D03*
D14*
X144390000Y-75250000D03*
D15*
X148785000Y-74250000D03*
%TD*%
D10*
%TO.C,J2*%
X133645000Y-78000000D03*
D11*
X137965000Y-79500000D03*
D12*
X137965000Y-76500000D03*
%TD*%
D17*
%TO.C,C5*%
X141000000Y-92000000D03*
X141000000Y-90100000D03*
%TD*%
D10*
%TO.C,J3*%
X173320000Y-82000000D03*
D18*
X169000000Y-80500000D03*
D12*
X169000000Y-83500000D03*
%TD*%
D19*
%TO.C,C3*%
X144000000Y-83500000D03*
X144000000Y-81950000D03*
%TD*%
%TO.C,C4*%
X139000000Y-71550000D03*
X139000000Y-70000000D03*
%TD*%
D20*
%TO.C,C2*%
X157676041Y-89000000D03*
D21*
X162676041Y-89000000D03*
%TD*%
D22*
%TO.C,R1*%
X145725000Y-83550000D03*
X145725000Y-81900000D03*
%TD*%
D23*
%TO.C,U1*%
X141160000Y-87847500D03*
X141660000Y-87847500D03*
X142160000Y-87847500D03*
X142160000Y-84972500D03*
X141660000Y-84972500D03*
X141160000Y-84972500D03*
D24*
X141660000Y-86410000D03*
%TD*%
D23*
%TO.C,U2*%
X141160000Y-74847500D03*
X141660000Y-74847500D03*
X142160000Y-74847500D03*
X142160000Y-71972500D03*
X141660000Y-71972500D03*
X141160000Y-71972500D03*
D24*
X141660000Y-73410000D03*
%TD*%
D20*
%TO.C,C7*%
X158000000Y-75000000D03*
D21*
X163000000Y-75000000D03*
%TD*%
D25*
%TO.C,C1*%
X154000000Y-81000000D03*
X154000000Y-82900000D03*
%TD*%
M02*
