%TF.GenerationSoftware,KiCad,Pcbnew,9.0.1*%
%TF.CreationDate,2025-07-03T11:12:22+02:00*%
%TF.ProjectId,BatteryBackup,42617474-6572-4794-9261-636b75702e6b,rev?*%
%TF.SameCoordinates,Original*%
%TF.FileFunction,Legend,Top*%
%TF.FilePolarity,Positive*%
%FSLAX46Y46*%
G04 Gerber Fmt 4.6, Leading zero omitted, Abs format (unit mm)*
G04 Created by KiCad (PCBNEW 9.0.1) date 2025-07-03 11:12:22*
%MOMM*%
%LPD*%
G01*
G04 APERTURE LIST*
%ADD10C,0.150000*%
%ADD11C,0.120000*%
G04 APERTURE END LIST*
D10*
X142904819Y-74449404D02*
X143714342Y-74449404D01*
X143714342Y-74449404D02*
X143809580Y-74401785D01*
X143809580Y-74401785D02*
X143857200Y-74354166D01*
X143857200Y-74354166D02*
X143904819Y-74258928D01*
X143904819Y-74258928D02*
X143904819Y-74068452D01*
X143904819Y-74068452D02*
X143857200Y-73973214D01*
X143857200Y-73973214D02*
X143809580Y-73925595D01*
X143809580Y-73925595D02*
X143714342Y-73877976D01*
X143714342Y-73877976D02*
X142904819Y-73877976D01*
X143238152Y-72973214D02*
X143904819Y-72973214D01*
X142857200Y-73211309D02*
X143571485Y-73449404D01*
X143571485Y-73449404D02*
X143571485Y-72830357D01*
X142814819Y-87671904D02*
X143624342Y-87671904D01*
X143624342Y-87671904D02*
X143719580Y-87624285D01*
X143719580Y-87624285D02*
X143767200Y-87576666D01*
X143767200Y-87576666D02*
X143814819Y-87481428D01*
X143814819Y-87481428D02*
X143814819Y-87290952D01*
X143814819Y-87290952D02*
X143767200Y-87195714D01*
X143767200Y-87195714D02*
X143719580Y-87148095D01*
X143719580Y-87148095D02*
X143624342Y-87100476D01*
X143624342Y-87100476D02*
X142814819Y-87100476D01*
X142814819Y-86719523D02*
X142814819Y-86100476D01*
X142814819Y-86100476D02*
X143195771Y-86433809D01*
X143195771Y-86433809D02*
X143195771Y-86290952D01*
X143195771Y-86290952D02*
X143243390Y-86195714D01*
X143243390Y-86195714D02*
X143291009Y-86148095D01*
X143291009Y-86148095D02*
X143386247Y-86100476D01*
X143386247Y-86100476D02*
X143624342Y-86100476D01*
X143624342Y-86100476D02*
X143719580Y-86148095D01*
X143719580Y-86148095D02*
X143767200Y-86195714D01*
X143767200Y-86195714D02*
X143814819Y-86290952D01*
X143814819Y-86290952D02*
X143814819Y-86576666D01*
X143814819Y-86576666D02*
X143767200Y-86671904D01*
X143767200Y-86671904D02*
X143719580Y-86719523D01*
X137408333Y-71634819D02*
X137075000Y-71158628D01*
X136836905Y-71634819D02*
X136836905Y-70634819D01*
X136836905Y-70634819D02*
X137217857Y-70634819D01*
X137217857Y-70634819D02*
X137313095Y-70682438D01*
X137313095Y-70682438D02*
X137360714Y-70730057D01*
X137360714Y-70730057D02*
X137408333Y-70825295D01*
X137408333Y-70825295D02*
X137408333Y-70968152D01*
X137408333Y-70968152D02*
X137360714Y-71063390D01*
X137360714Y-71063390D02*
X137313095Y-71111009D01*
X137313095Y-71111009D02*
X137217857Y-71158628D01*
X137217857Y-71158628D02*
X136836905Y-71158628D01*
X138265476Y-70968152D02*
X138265476Y-71634819D01*
X138027381Y-70587200D02*
X137789286Y-71301485D01*
X137789286Y-71301485D02*
X138408333Y-71301485D01*
X138158333Y-86634819D02*
X137825000Y-86158628D01*
X137586905Y-86634819D02*
X137586905Y-85634819D01*
X137586905Y-85634819D02*
X137967857Y-85634819D01*
X137967857Y-85634819D02*
X138063095Y-85682438D01*
X138063095Y-85682438D02*
X138110714Y-85730057D01*
X138110714Y-85730057D02*
X138158333Y-85825295D01*
X138158333Y-85825295D02*
X138158333Y-85968152D01*
X138158333Y-85968152D02*
X138110714Y-86063390D01*
X138110714Y-86063390D02*
X138063095Y-86111009D01*
X138063095Y-86111009D02*
X137967857Y-86158628D01*
X137967857Y-86158628D02*
X137586905Y-86158628D01*
X138491667Y-85634819D02*
X139110714Y-85634819D01*
X139110714Y-85634819D02*
X138777381Y-86015771D01*
X138777381Y-86015771D02*
X138920238Y-86015771D01*
X138920238Y-86015771D02*
X139015476Y-86063390D01*
X139015476Y-86063390D02*
X139063095Y-86111009D01*
X139063095Y-86111009D02*
X139110714Y-86206247D01*
X139110714Y-86206247D02*
X139110714Y-86444342D01*
X139110714Y-86444342D02*
X139063095Y-86539580D01*
X139063095Y-86539580D02*
X139015476Y-86587200D01*
X139015476Y-86587200D02*
X138920238Y-86634819D01*
X138920238Y-86634819D02*
X138634524Y-86634819D01*
X138634524Y-86634819D02*
X138539286Y-86587200D01*
X138539286Y-86587200D02*
X138491667Y-86539580D01*
X142511905Y-84204819D02*
X142511905Y-83204819D01*
X142511905Y-83204819D02*
X142750000Y-83204819D01*
X142750000Y-83204819D02*
X142892857Y-83252438D01*
X142892857Y-83252438D02*
X142988095Y-83347676D01*
X142988095Y-83347676D02*
X143035714Y-83442914D01*
X143035714Y-83442914D02*
X143083333Y-83633390D01*
X143083333Y-83633390D02*
X143083333Y-83776247D01*
X143083333Y-83776247D02*
X143035714Y-83966723D01*
X143035714Y-83966723D02*
X142988095Y-84061961D01*
X142988095Y-84061961D02*
X142892857Y-84157200D01*
X142892857Y-84157200D02*
X142750000Y-84204819D01*
X142750000Y-84204819D02*
X142511905Y-84204819D01*
X143464286Y-83300057D02*
X143511905Y-83252438D01*
X143511905Y-83252438D02*
X143607143Y-83204819D01*
X143607143Y-83204819D02*
X143845238Y-83204819D01*
X143845238Y-83204819D02*
X143940476Y-83252438D01*
X143940476Y-83252438D02*
X143988095Y-83300057D01*
X143988095Y-83300057D02*
X144035714Y-83395295D01*
X144035714Y-83395295D02*
X144035714Y-83490533D01*
X144035714Y-83490533D02*
X143988095Y-83633390D01*
X143988095Y-83633390D02*
X143416667Y-84204819D01*
X143416667Y-84204819D02*
X144035714Y-84204819D01*
X142261905Y-98454819D02*
X142261905Y-97454819D01*
X142261905Y-97454819D02*
X142500000Y-97454819D01*
X142500000Y-97454819D02*
X142642857Y-97502438D01*
X142642857Y-97502438D02*
X142738095Y-97597676D01*
X142738095Y-97597676D02*
X142785714Y-97692914D01*
X142785714Y-97692914D02*
X142833333Y-97883390D01*
X142833333Y-97883390D02*
X142833333Y-98026247D01*
X142833333Y-98026247D02*
X142785714Y-98216723D01*
X142785714Y-98216723D02*
X142738095Y-98311961D01*
X142738095Y-98311961D02*
X142642857Y-98407200D01*
X142642857Y-98407200D02*
X142500000Y-98454819D01*
X142500000Y-98454819D02*
X142261905Y-98454819D01*
X143785714Y-98454819D02*
X143214286Y-98454819D01*
X143500000Y-98454819D02*
X143500000Y-97454819D01*
X143500000Y-97454819D02*
X143404762Y-97597676D01*
X143404762Y-97597676D02*
X143309524Y-97692914D01*
X143309524Y-97692914D02*
X143214286Y-97740533D01*
X127299819Y-93333333D02*
X128014104Y-93333333D01*
X128014104Y-93333333D02*
X128156961Y-93380952D01*
X128156961Y-93380952D02*
X128252200Y-93476190D01*
X128252200Y-93476190D02*
X128299819Y-93619047D01*
X128299819Y-93619047D02*
X128299819Y-93714285D01*
X128299819Y-92333333D02*
X128299819Y-92904761D01*
X128299819Y-92619047D02*
X127299819Y-92619047D01*
X127299819Y-92619047D02*
X127442676Y-92714285D01*
X127442676Y-92714285D02*
X127537914Y-92809523D01*
X127537914Y-92809523D02*
X127585533Y-92904761D01*
X148404761Y-84435057D02*
X148309523Y-84387438D01*
X148309523Y-84387438D02*
X148214285Y-84292200D01*
X148214285Y-84292200D02*
X148071428Y-84149342D01*
X148071428Y-84149342D02*
X147976190Y-84101723D01*
X147976190Y-84101723D02*
X147880952Y-84101723D01*
X147928571Y-84339819D02*
X147833333Y-84292200D01*
X147833333Y-84292200D02*
X147738095Y-84196961D01*
X147738095Y-84196961D02*
X147690476Y-84006485D01*
X147690476Y-84006485D02*
X147690476Y-83673152D01*
X147690476Y-83673152D02*
X147738095Y-83482676D01*
X147738095Y-83482676D02*
X147833333Y-83387438D01*
X147833333Y-83387438D02*
X147928571Y-83339819D01*
X147928571Y-83339819D02*
X148119047Y-83339819D01*
X148119047Y-83339819D02*
X148214285Y-83387438D01*
X148214285Y-83387438D02*
X148309523Y-83482676D01*
X148309523Y-83482676D02*
X148357142Y-83673152D01*
X148357142Y-83673152D02*
X148357142Y-84006485D01*
X148357142Y-84006485D02*
X148309523Y-84196961D01*
X148309523Y-84196961D02*
X148214285Y-84292200D01*
X148214285Y-84292200D02*
X148119047Y-84339819D01*
X148119047Y-84339819D02*
X147928571Y-84339819D01*
X149309523Y-84339819D02*
X148738095Y-84339819D01*
X149023809Y-84339819D02*
X149023809Y-83339819D01*
X149023809Y-83339819D02*
X148928571Y-83482676D01*
X148928571Y-83482676D02*
X148833333Y-83577914D01*
X148833333Y-83577914D02*
X148738095Y-83625533D01*
X137533333Y-73539580D02*
X137485714Y-73587200D01*
X137485714Y-73587200D02*
X137342857Y-73634819D01*
X137342857Y-73634819D02*
X137247619Y-73634819D01*
X137247619Y-73634819D02*
X137104762Y-73587200D01*
X137104762Y-73587200D02*
X137009524Y-73491961D01*
X137009524Y-73491961D02*
X136961905Y-73396723D01*
X136961905Y-73396723D02*
X136914286Y-73206247D01*
X136914286Y-73206247D02*
X136914286Y-73063390D01*
X136914286Y-73063390D02*
X136961905Y-72872914D01*
X136961905Y-72872914D02*
X137009524Y-72777676D01*
X137009524Y-72777676D02*
X137104762Y-72682438D01*
X137104762Y-72682438D02*
X137247619Y-72634819D01*
X137247619Y-72634819D02*
X137342857Y-72634819D01*
X137342857Y-72634819D02*
X137485714Y-72682438D01*
X137485714Y-72682438D02*
X137533333Y-72730057D01*
X138390476Y-72634819D02*
X138200000Y-72634819D01*
X138200000Y-72634819D02*
X138104762Y-72682438D01*
X138104762Y-72682438D02*
X138057143Y-72730057D01*
X138057143Y-72730057D02*
X137961905Y-72872914D01*
X137961905Y-72872914D02*
X137914286Y-73063390D01*
X137914286Y-73063390D02*
X137914286Y-73444342D01*
X137914286Y-73444342D02*
X137961905Y-73539580D01*
X137961905Y-73539580D02*
X138009524Y-73587200D01*
X138009524Y-73587200D02*
X138104762Y-73634819D01*
X138104762Y-73634819D02*
X138295238Y-73634819D01*
X138295238Y-73634819D02*
X138390476Y-73587200D01*
X138390476Y-73587200D02*
X138438095Y-73539580D01*
X138438095Y-73539580D02*
X138485714Y-73444342D01*
X138485714Y-73444342D02*
X138485714Y-73206247D01*
X138485714Y-73206247D02*
X138438095Y-73111009D01*
X138438095Y-73111009D02*
X138390476Y-73063390D01*
X138390476Y-73063390D02*
X138295238Y-73015771D01*
X138295238Y-73015771D02*
X138104762Y-73015771D01*
X138104762Y-73015771D02*
X138009524Y-73063390D01*
X138009524Y-73063390D02*
X137961905Y-73111009D01*
X137961905Y-73111009D02*
X137914286Y-73206247D01*
X147904761Y-69900057D02*
X147809523Y-69852438D01*
X147809523Y-69852438D02*
X147714285Y-69757200D01*
X147714285Y-69757200D02*
X147571428Y-69614342D01*
X147571428Y-69614342D02*
X147476190Y-69566723D01*
X147476190Y-69566723D02*
X147380952Y-69566723D01*
X147428571Y-69804819D02*
X147333333Y-69757200D01*
X147333333Y-69757200D02*
X147238095Y-69661961D01*
X147238095Y-69661961D02*
X147190476Y-69471485D01*
X147190476Y-69471485D02*
X147190476Y-69138152D01*
X147190476Y-69138152D02*
X147238095Y-68947676D01*
X147238095Y-68947676D02*
X147333333Y-68852438D01*
X147333333Y-68852438D02*
X147428571Y-68804819D01*
X147428571Y-68804819D02*
X147619047Y-68804819D01*
X147619047Y-68804819D02*
X147714285Y-68852438D01*
X147714285Y-68852438D02*
X147809523Y-68947676D01*
X147809523Y-68947676D02*
X147857142Y-69138152D01*
X147857142Y-69138152D02*
X147857142Y-69471485D01*
X147857142Y-69471485D02*
X147809523Y-69661961D01*
X147809523Y-69661961D02*
X147714285Y-69757200D01*
X147714285Y-69757200D02*
X147619047Y-69804819D01*
X147619047Y-69804819D02*
X147428571Y-69804819D01*
X148238095Y-68900057D02*
X148285714Y-68852438D01*
X148285714Y-68852438D02*
X148380952Y-68804819D01*
X148380952Y-68804819D02*
X148619047Y-68804819D01*
X148619047Y-68804819D02*
X148714285Y-68852438D01*
X148714285Y-68852438D02*
X148761904Y-68900057D01*
X148761904Y-68900057D02*
X148809523Y-68995295D01*
X148809523Y-68995295D02*
X148809523Y-69090533D01*
X148809523Y-69090533D02*
X148761904Y-69233390D01*
X148761904Y-69233390D02*
X148190476Y-69804819D01*
X148190476Y-69804819D02*
X148809523Y-69804819D01*
X127299819Y-78333333D02*
X128014104Y-78333333D01*
X128014104Y-78333333D02*
X128156961Y-78380952D01*
X128156961Y-78380952D02*
X128252200Y-78476190D01*
X128252200Y-78476190D02*
X128299819Y-78619047D01*
X128299819Y-78619047D02*
X128299819Y-78714285D01*
X127395057Y-77904761D02*
X127347438Y-77857142D01*
X127347438Y-77857142D02*
X127299819Y-77761904D01*
X127299819Y-77761904D02*
X127299819Y-77523809D01*
X127299819Y-77523809D02*
X127347438Y-77428571D01*
X127347438Y-77428571D02*
X127395057Y-77380952D01*
X127395057Y-77380952D02*
X127490295Y-77333333D01*
X127490295Y-77333333D02*
X127585533Y-77333333D01*
X127585533Y-77333333D02*
X127728390Y-77380952D01*
X127728390Y-77380952D02*
X128299819Y-77952380D01*
X128299819Y-77952380D02*
X128299819Y-77333333D01*
X138033333Y-88539580D02*
X137985714Y-88587200D01*
X137985714Y-88587200D02*
X137842857Y-88634819D01*
X137842857Y-88634819D02*
X137747619Y-88634819D01*
X137747619Y-88634819D02*
X137604762Y-88587200D01*
X137604762Y-88587200D02*
X137509524Y-88491961D01*
X137509524Y-88491961D02*
X137461905Y-88396723D01*
X137461905Y-88396723D02*
X137414286Y-88206247D01*
X137414286Y-88206247D02*
X137414286Y-88063390D01*
X137414286Y-88063390D02*
X137461905Y-87872914D01*
X137461905Y-87872914D02*
X137509524Y-87777676D01*
X137509524Y-87777676D02*
X137604762Y-87682438D01*
X137604762Y-87682438D02*
X137747619Y-87634819D01*
X137747619Y-87634819D02*
X137842857Y-87634819D01*
X137842857Y-87634819D02*
X137985714Y-87682438D01*
X137985714Y-87682438D02*
X138033333Y-87730057D01*
X138938095Y-87634819D02*
X138461905Y-87634819D01*
X138461905Y-87634819D02*
X138414286Y-88111009D01*
X138414286Y-88111009D02*
X138461905Y-88063390D01*
X138461905Y-88063390D02*
X138557143Y-88015771D01*
X138557143Y-88015771D02*
X138795238Y-88015771D01*
X138795238Y-88015771D02*
X138890476Y-88063390D01*
X138890476Y-88063390D02*
X138938095Y-88111009D01*
X138938095Y-88111009D02*
X138985714Y-88206247D01*
X138985714Y-88206247D02*
X138985714Y-88444342D01*
X138985714Y-88444342D02*
X138938095Y-88539580D01*
X138938095Y-88539580D02*
X138890476Y-88587200D01*
X138890476Y-88587200D02*
X138795238Y-88634819D01*
X138795238Y-88634819D02*
X138557143Y-88634819D01*
X138557143Y-88634819D02*
X138461905Y-88587200D01*
X138461905Y-88587200D02*
X138414286Y-88539580D01*
X178574819Y-82333333D02*
X179289104Y-82333333D01*
X179289104Y-82333333D02*
X179431961Y-82380952D01*
X179431961Y-82380952D02*
X179527200Y-82476190D01*
X179527200Y-82476190D02*
X179574819Y-82619047D01*
X179574819Y-82619047D02*
X179574819Y-82714285D01*
X178574819Y-81952380D02*
X178574819Y-81333333D01*
X178574819Y-81333333D02*
X178955771Y-81666666D01*
X178955771Y-81666666D02*
X178955771Y-81523809D01*
X178955771Y-81523809D02*
X179003390Y-81428571D01*
X179003390Y-81428571D02*
X179051009Y-81380952D01*
X179051009Y-81380952D02*
X179146247Y-81333333D01*
X179146247Y-81333333D02*
X179384342Y-81333333D01*
X179384342Y-81333333D02*
X179479580Y-81380952D01*
X179479580Y-81380952D02*
X179527200Y-81428571D01*
X179527200Y-81428571D02*
X179574819Y-81523809D01*
X179574819Y-81523809D02*
X179574819Y-81809523D01*
X179574819Y-81809523D02*
X179527200Y-81904761D01*
X179527200Y-81904761D02*
X179479580Y-81952380D01*
X142808333Y-82679580D02*
X142760714Y-82727200D01*
X142760714Y-82727200D02*
X142617857Y-82774819D01*
X142617857Y-82774819D02*
X142522619Y-82774819D01*
X142522619Y-82774819D02*
X142379762Y-82727200D01*
X142379762Y-82727200D02*
X142284524Y-82631961D01*
X142284524Y-82631961D02*
X142236905Y-82536723D01*
X142236905Y-82536723D02*
X142189286Y-82346247D01*
X142189286Y-82346247D02*
X142189286Y-82203390D01*
X142189286Y-82203390D02*
X142236905Y-82012914D01*
X142236905Y-82012914D02*
X142284524Y-81917676D01*
X142284524Y-81917676D02*
X142379762Y-81822438D01*
X142379762Y-81822438D02*
X142522619Y-81774819D01*
X142522619Y-81774819D02*
X142617857Y-81774819D01*
X142617857Y-81774819D02*
X142760714Y-81822438D01*
X142760714Y-81822438D02*
X142808333Y-81870057D01*
X143141667Y-81774819D02*
X143760714Y-81774819D01*
X143760714Y-81774819D02*
X143427381Y-82155771D01*
X143427381Y-82155771D02*
X143570238Y-82155771D01*
X143570238Y-82155771D02*
X143665476Y-82203390D01*
X143665476Y-82203390D02*
X143713095Y-82251009D01*
X143713095Y-82251009D02*
X143760714Y-82346247D01*
X143760714Y-82346247D02*
X143760714Y-82584342D01*
X143760714Y-82584342D02*
X143713095Y-82679580D01*
X143713095Y-82679580D02*
X143665476Y-82727200D01*
X143665476Y-82727200D02*
X143570238Y-82774819D01*
X143570238Y-82774819D02*
X143284524Y-82774819D01*
X143284524Y-82774819D02*
X143189286Y-82727200D01*
X143189286Y-82727200D02*
X143141667Y-82679580D01*
X141358333Y-68929580D02*
X141310714Y-68977200D01*
X141310714Y-68977200D02*
X141167857Y-69024819D01*
X141167857Y-69024819D02*
X141072619Y-69024819D01*
X141072619Y-69024819D02*
X140929762Y-68977200D01*
X140929762Y-68977200D02*
X140834524Y-68881961D01*
X140834524Y-68881961D02*
X140786905Y-68786723D01*
X140786905Y-68786723D02*
X140739286Y-68596247D01*
X140739286Y-68596247D02*
X140739286Y-68453390D01*
X140739286Y-68453390D02*
X140786905Y-68262914D01*
X140786905Y-68262914D02*
X140834524Y-68167676D01*
X140834524Y-68167676D02*
X140929762Y-68072438D01*
X140929762Y-68072438D02*
X141072619Y-68024819D01*
X141072619Y-68024819D02*
X141167857Y-68024819D01*
X141167857Y-68024819D02*
X141310714Y-68072438D01*
X141310714Y-68072438D02*
X141358333Y-68120057D01*
X142215476Y-68358152D02*
X142215476Y-69024819D01*
X141977381Y-67977200D02*
X141739286Y-68691485D01*
X141739286Y-68691485D02*
X142358333Y-68691485D01*
X160009374Y-81859580D02*
X159961755Y-81907200D01*
X159961755Y-81907200D02*
X159818898Y-81954819D01*
X159818898Y-81954819D02*
X159723660Y-81954819D01*
X159723660Y-81954819D02*
X159580803Y-81907200D01*
X159580803Y-81907200D02*
X159485565Y-81811961D01*
X159485565Y-81811961D02*
X159437946Y-81716723D01*
X159437946Y-81716723D02*
X159390327Y-81526247D01*
X159390327Y-81526247D02*
X159390327Y-81383390D01*
X159390327Y-81383390D02*
X159437946Y-81192914D01*
X159437946Y-81192914D02*
X159485565Y-81097676D01*
X159485565Y-81097676D02*
X159580803Y-81002438D01*
X159580803Y-81002438D02*
X159723660Y-80954819D01*
X159723660Y-80954819D02*
X159818898Y-80954819D01*
X159818898Y-80954819D02*
X159961755Y-81002438D01*
X159961755Y-81002438D02*
X160009374Y-81050057D01*
X160390327Y-81050057D02*
X160437946Y-81002438D01*
X160437946Y-81002438D02*
X160533184Y-80954819D01*
X160533184Y-80954819D02*
X160771279Y-80954819D01*
X160771279Y-80954819D02*
X160866517Y-81002438D01*
X160866517Y-81002438D02*
X160914136Y-81050057D01*
X160914136Y-81050057D02*
X160961755Y-81145295D01*
X160961755Y-81145295D02*
X160961755Y-81240533D01*
X160961755Y-81240533D02*
X160914136Y-81383390D01*
X160914136Y-81383390D02*
X160342708Y-81954819D01*
X160342708Y-81954819D02*
X160961755Y-81954819D01*
X160333333Y-67859580D02*
X160285714Y-67907200D01*
X160285714Y-67907200D02*
X160142857Y-67954819D01*
X160142857Y-67954819D02*
X160047619Y-67954819D01*
X160047619Y-67954819D02*
X159904762Y-67907200D01*
X159904762Y-67907200D02*
X159809524Y-67811961D01*
X159809524Y-67811961D02*
X159761905Y-67716723D01*
X159761905Y-67716723D02*
X159714286Y-67526247D01*
X159714286Y-67526247D02*
X159714286Y-67383390D01*
X159714286Y-67383390D02*
X159761905Y-67192914D01*
X159761905Y-67192914D02*
X159809524Y-67097676D01*
X159809524Y-67097676D02*
X159904762Y-67002438D01*
X159904762Y-67002438D02*
X160047619Y-66954819D01*
X160047619Y-66954819D02*
X160142857Y-66954819D01*
X160142857Y-66954819D02*
X160285714Y-67002438D01*
X160285714Y-67002438D02*
X160333333Y-67050057D01*
X160666667Y-66954819D02*
X161333333Y-66954819D01*
X161333333Y-66954819D02*
X160904762Y-67954819D01*
X156039580Y-82116666D02*
X156087200Y-82164285D01*
X156087200Y-82164285D02*
X156134819Y-82307142D01*
X156134819Y-82307142D02*
X156134819Y-82402380D01*
X156134819Y-82402380D02*
X156087200Y-82545237D01*
X156087200Y-82545237D02*
X155991961Y-82640475D01*
X155991961Y-82640475D02*
X155896723Y-82688094D01*
X155896723Y-82688094D02*
X155706247Y-82735713D01*
X155706247Y-82735713D02*
X155563390Y-82735713D01*
X155563390Y-82735713D02*
X155372914Y-82688094D01*
X155372914Y-82688094D02*
X155277676Y-82640475D01*
X155277676Y-82640475D02*
X155182438Y-82545237D01*
X155182438Y-82545237D02*
X155134819Y-82402380D01*
X155134819Y-82402380D02*
X155134819Y-82307142D01*
X155134819Y-82307142D02*
X155182438Y-82164285D01*
X155182438Y-82164285D02*
X155230057Y-82116666D01*
X156134819Y-81164285D02*
X156134819Y-81735713D01*
X156134819Y-81449999D02*
X155134819Y-81449999D01*
X155134819Y-81449999D02*
X155277676Y-81545237D01*
X155277676Y-81545237D02*
X155372914Y-81640475D01*
X155372914Y-81640475D02*
X155420533Y-81735713D01*
D11*
%TO.C,U4*%
X142610000Y-72187500D02*
X142610000Y-75187500D01*
X140390000Y-72187500D02*
X140390000Y-75187500D01*
X142580000Y-71667500D02*
X142300000Y-71667500D01*
X142300000Y-71387500D01*
X142580000Y-71667500D01*
G36*
X142580000Y-71667500D02*
G01*
X142300000Y-71667500D01*
X142300000Y-71387500D01*
X142580000Y-71667500D01*
G37*
%TO.C,U3*%
X142520000Y-85410000D02*
X142520000Y-88410000D01*
X140300000Y-85410000D02*
X140300000Y-88410000D01*
X142490000Y-84890000D02*
X142210000Y-84890000D01*
X142210000Y-84610000D01*
X142490000Y-84890000D01*
G36*
X142490000Y-84890000D02*
G01*
X142210000Y-84890000D01*
X142210000Y-84610000D01*
X142490000Y-84890000D01*
G37*
%TO.C,R4*%
X137812258Y-70272500D02*
X137337742Y-70272500D01*
X137812258Y-69227500D02*
X137337742Y-69227500D01*
%TO.C,R3*%
X138562258Y-85272500D02*
X138087742Y-85272500D01*
X138562258Y-84227500D02*
X138087742Y-84227500D01*
%TO.C,D2*%
X146760000Y-82900000D02*
X146760000Y-79600000D01*
X146760000Y-82900000D02*
X141250000Y-82900000D01*
X146760000Y-79600000D02*
X141250000Y-79600000D01*
%TO.C,D1*%
X146510000Y-97150000D02*
X146510000Y-93850000D01*
X146510000Y-97150000D02*
X141000000Y-97150000D01*
X146510000Y-93850000D02*
X141000000Y-93850000D01*
%TO.C,J1*%
X128935000Y-89065000D02*
X129935000Y-88065000D01*
X128935000Y-96935000D02*
X128935000Y-89065000D01*
X129935000Y-88065000D02*
X139055000Y-88065000D01*
X129935000Y-97935000D02*
X128935000Y-96935000D01*
X139055000Y-88065000D02*
X139055000Y-90848233D01*
X139055000Y-93490000D02*
X139055000Y-92151767D01*
X139055000Y-97935000D02*
X129935000Y-97935000D01*
X139055000Y-97935000D02*
X139055000Y-95510000D01*
%TO.C,Q1*%
X144390000Y-92615000D02*
X144390000Y-92895000D01*
X152610000Y-84675000D02*
X144760000Y-84675000D01*
X152610000Y-84955000D02*
X152610000Y-84675000D01*
X152610000Y-92615000D02*
X152610000Y-92895000D01*
X152610000Y-92895000D02*
X144390000Y-92895000D01*
X144060000Y-84975000D02*
X143820000Y-84645000D01*
X144300000Y-84645000D01*
X144060000Y-84975000D01*
G36*
X144060000Y-84975000D02*
G01*
X143820000Y-84645000D01*
X144300000Y-84645000D01*
X144060000Y-84975000D01*
G37*
%TO.C,C6*%
X137961252Y-72235000D02*
X137438748Y-72235000D01*
X137961252Y-70765000D02*
X137438748Y-70765000D01*
%TO.C,Q2*%
X143890000Y-78080000D02*
X143890000Y-78360000D01*
X152110000Y-70140000D02*
X144260000Y-70140000D01*
X152110000Y-70420000D02*
X152110000Y-70140000D01*
X152110000Y-78080000D02*
X152110000Y-78360000D01*
X152110000Y-78360000D02*
X143890000Y-78360000D01*
X143560000Y-70440000D02*
X143320000Y-70110000D01*
X143800000Y-70110000D01*
X143560000Y-70440000D01*
G36*
X143560000Y-70440000D02*
G01*
X143320000Y-70110000D01*
X143800000Y-70110000D01*
X143560000Y-70440000D01*
G37*
%TO.C,J2*%
X128935000Y-74065000D02*
X129935000Y-73065000D01*
X128935000Y-81935000D02*
X128935000Y-74065000D01*
X129935000Y-73065000D02*
X139055000Y-73065000D01*
X129935000Y-82935000D02*
X128935000Y-81935000D01*
X139055000Y-73065000D02*
X139055000Y-75848233D01*
X139055000Y-78490000D02*
X139055000Y-77151767D01*
X139055000Y-82935000D02*
X129935000Y-82935000D01*
X139055000Y-82935000D02*
X139055000Y-80510000D01*
%TO.C,C5*%
X138461252Y-87235000D02*
X137938748Y-87235000D01*
X138461252Y-85765000D02*
X137938748Y-85765000D01*
%TO.C,J3*%
X167910000Y-77065000D02*
X167910000Y-79490000D01*
X167910000Y-77065000D02*
X177030000Y-77065000D01*
X167910000Y-81510000D02*
X167910000Y-82848233D01*
X167910000Y-86935000D02*
X167910000Y-84151767D01*
X177030000Y-77065000D02*
X178030000Y-78065000D01*
X177030000Y-86935000D02*
X167910000Y-86935000D01*
X178030000Y-78065000D02*
X178030000Y-85935000D01*
X178030000Y-85935000D02*
X177030000Y-86935000D01*
%TO.C,C3*%
X142834420Y-83240000D02*
X143115580Y-83240000D01*
X142834420Y-84260000D02*
X143115580Y-84260000D01*
%TO.C,C4*%
X141384420Y-69490000D02*
X141665580Y-69490000D01*
X141384420Y-70510000D02*
X141665580Y-70510000D01*
%TO.C,C2*%
X153358959Y-85425000D02*
X154608959Y-85425000D01*
X153983959Y-84800000D02*
X153983959Y-86050000D01*
X160176041Y-82670000D02*
X160176041Y-95330000D01*
X160216041Y-82670000D02*
X160216041Y-95330000D01*
X160256041Y-82671000D02*
X160256041Y-95329000D01*
X160296041Y-82671000D02*
X160296041Y-95329000D01*
X160336041Y-82672000D02*
X160336041Y-95328000D01*
X160376041Y-82673000D02*
X160376041Y-95327000D01*
X160416041Y-82675000D02*
X160416041Y-95325000D01*
X160456041Y-82676000D02*
X160456041Y-95324000D01*
X160496041Y-82678000D02*
X160496041Y-95322000D01*
X160536041Y-82680000D02*
X160536041Y-95320000D01*
X160576041Y-82683000D02*
X160576041Y-95317000D01*
X160616041Y-82685000D02*
X160616041Y-95315000D01*
X160656041Y-82688000D02*
X160656041Y-95312000D01*
X160696041Y-82691000D02*
X160696041Y-95309000D01*
X160736041Y-82695000D02*
X160736041Y-95305000D01*
X160776041Y-82698000D02*
X160776041Y-95302000D01*
X160816041Y-82702000D02*
X160816041Y-95298000D01*
X160856041Y-82706000D02*
X160856041Y-95294000D01*
X160896041Y-82711000D02*
X160896041Y-95289000D01*
X160936041Y-82716000D02*
X160936041Y-95284000D01*
X160976041Y-82720000D02*
X160976041Y-95280000D01*
X161016041Y-82726000D02*
X161016041Y-95274000D01*
X161056041Y-82731000D02*
X161056041Y-95269000D01*
X161096041Y-82737000D02*
X161096041Y-95263000D01*
X161136041Y-82743000D02*
X161136041Y-95257000D01*
X161176041Y-82749000D02*
X161176041Y-95251000D01*
X161216041Y-82755000D02*
X161216041Y-95245000D01*
X161256041Y-82762000D02*
X161256041Y-87560000D01*
X161256041Y-90440000D02*
X161256041Y-95238000D01*
X161296041Y-82769000D02*
X161296041Y-87560000D01*
X161296041Y-90440000D02*
X161296041Y-95231000D01*
X161336041Y-82777000D02*
X161336041Y-87560000D01*
X161336041Y-90440000D02*
X161336041Y-95223000D01*
X161376041Y-82784000D02*
X161376041Y-87560000D01*
X161376041Y-90440000D02*
X161376041Y-95216000D01*
X161416041Y-82792000D02*
X161416041Y-87560000D01*
X161416041Y-90440000D02*
X161416041Y-95208000D01*
X161456041Y-82800000D02*
X161456041Y-87560000D01*
X161456041Y-90440000D02*
X161456041Y-95200000D01*
X161496041Y-82808000D02*
X161496041Y-87560000D01*
X161496041Y-90440000D02*
X161496041Y-95192000D01*
X161536041Y-82817000D02*
X161536041Y-87560000D01*
X161536041Y-90440000D02*
X161536041Y-95183000D01*
X161576041Y-82826000D02*
X161576041Y-87560000D01*
X161576041Y-90440000D02*
X161576041Y-95174000D01*
X161616041Y-82835000D02*
X161616041Y-87560000D01*
X161616041Y-90440000D02*
X161616041Y-95165000D01*
X161656041Y-82844000D02*
X161656041Y-87560000D01*
X161656041Y-90440000D02*
X161656041Y-95156000D01*
X161696041Y-82854000D02*
X161696041Y-87560000D01*
X161696041Y-90440000D02*
X161696041Y-95146000D01*
X161736041Y-82864000D02*
X161736041Y-87560000D01*
X161736041Y-90440000D02*
X161736041Y-95136000D01*
X161776041Y-82874000D02*
X161776041Y-87560000D01*
X161776041Y-90440000D02*
X161776041Y-95126000D01*
X161816041Y-82885000D02*
X161816041Y-87560000D01*
X161816041Y-90440000D02*
X161816041Y-95115000D01*
X161856041Y-82896000D02*
X161856041Y-87560000D01*
X161856041Y-90440000D02*
X161856041Y-95104000D01*
X161896041Y-82907000D02*
X161896041Y-87560000D01*
X161896041Y-90440000D02*
X161896041Y-95093000D01*
X161936041Y-82918000D02*
X161936041Y-87560000D01*
X161936041Y-90440000D02*
X161936041Y-95082000D01*
X161976041Y-82930000D02*
X161976041Y-87560000D01*
X161976041Y-90440000D02*
X161976041Y-95070000D01*
X162016041Y-82942000D02*
X162016041Y-87560000D01*
X162016041Y-90440000D02*
X162016041Y-95058000D01*
X162056041Y-82954000D02*
X162056041Y-87560000D01*
X162056041Y-90440000D02*
X162056041Y-95046000D01*
X162096041Y-82966000D02*
X162096041Y-87560000D01*
X162096041Y-90440000D02*
X162096041Y-95034000D01*
X162136041Y-82979000D02*
X162136041Y-87560000D01*
X162136041Y-90440000D02*
X162136041Y-95021000D01*
X162176041Y-82992000D02*
X162176041Y-87560000D01*
X162176041Y-90440000D02*
X162176041Y-95008000D01*
X162216041Y-83005000D02*
X162216041Y-87560000D01*
X162216041Y-90440000D02*
X162216041Y-94995000D01*
X162256041Y-83019000D02*
X162256041Y-87560000D01*
X162256041Y-90440000D02*
X162256041Y-94981000D01*
X162296041Y-83033000D02*
X162296041Y-87560000D01*
X162296041Y-90440000D02*
X162296041Y-94967000D01*
X162336041Y-83047000D02*
X162336041Y-87560000D01*
X162336041Y-90440000D02*
X162336041Y-94953000D01*
X162376041Y-83062000D02*
X162376041Y-87560000D01*
X162376041Y-90440000D02*
X162376041Y-94938000D01*
X162416041Y-83077000D02*
X162416041Y-87560000D01*
X162416041Y-90440000D02*
X162416041Y-94923000D01*
X162456041Y-83092000D02*
X162456041Y-87560000D01*
X162456041Y-90440000D02*
X162456041Y-94908000D01*
X162496041Y-83108000D02*
X162496041Y-87560000D01*
X162496041Y-90440000D02*
X162496041Y-94892000D01*
X162536041Y-83123000D02*
X162536041Y-87560000D01*
X162536041Y-90440000D02*
X162536041Y-94877000D01*
X162576041Y-83139000D02*
X162576041Y-87560000D01*
X162576041Y-90440000D02*
X162576041Y-94861000D01*
X162616041Y-83156000D02*
X162616041Y-87560000D01*
X162616041Y-90440000D02*
X162616041Y-94844000D01*
X162656041Y-83173000D02*
X162656041Y-87560000D01*
X162656041Y-90440000D02*
X162656041Y-94827000D01*
X162696041Y-83190000D02*
X162696041Y-87560000D01*
X162696041Y-90440000D02*
X162696041Y-94810000D01*
X162736041Y-83207000D02*
X162736041Y-87560000D01*
X162736041Y-90440000D02*
X162736041Y-94793000D01*
X162776041Y-83225000D02*
X162776041Y-87560000D01*
X162776041Y-90440000D02*
X162776041Y-94775000D01*
X162816041Y-83243000D02*
X162816041Y-87560000D01*
X162816041Y-90440000D02*
X162816041Y-94757000D01*
X162856041Y-83261000D02*
X162856041Y-87560000D01*
X162856041Y-90440000D02*
X162856041Y-94739000D01*
X162896041Y-83280000D02*
X162896041Y-87560000D01*
X162896041Y-90440000D02*
X162896041Y-94720000D01*
X162936041Y-83299000D02*
X162936041Y-87560000D01*
X162936041Y-90440000D02*
X162936041Y-94701000D01*
X162976041Y-83318000D02*
X162976041Y-87560000D01*
X162976041Y-90440000D02*
X162976041Y-94682000D01*
X163016041Y-83338000D02*
X163016041Y-87560000D01*
X163016041Y-90440000D02*
X163016041Y-94662000D01*
X163056041Y-83358000D02*
X163056041Y-87560000D01*
X163056041Y-90440000D02*
X163056041Y-94642000D01*
X163096041Y-83379000D02*
X163096041Y-87560000D01*
X163096041Y-90440000D02*
X163096041Y-94621000D01*
X163136041Y-83399000D02*
X163136041Y-87560000D01*
X163136041Y-90440000D02*
X163136041Y-94601000D01*
X163176041Y-83421000D02*
X163176041Y-87560000D01*
X163176041Y-90440000D02*
X163176041Y-94579000D01*
X163216041Y-83442000D02*
X163216041Y-87560000D01*
X163216041Y-90440000D02*
X163216041Y-94558000D01*
X163256041Y-83464000D02*
X163256041Y-87560000D01*
X163256041Y-90440000D02*
X163256041Y-94536000D01*
X163296041Y-83486000D02*
X163296041Y-87560000D01*
X163296041Y-90440000D02*
X163296041Y-94514000D01*
X163336041Y-83509000D02*
X163336041Y-87560000D01*
X163336041Y-90440000D02*
X163336041Y-94491000D01*
X163376041Y-83532000D02*
X163376041Y-87560000D01*
X163376041Y-90440000D02*
X163376041Y-94468000D01*
X163416041Y-83556000D02*
X163416041Y-87560000D01*
X163416041Y-90440000D02*
X163416041Y-94444000D01*
X163456041Y-83579000D02*
X163456041Y-87560000D01*
X163456041Y-90440000D02*
X163456041Y-94421000D01*
X163496041Y-83604000D02*
X163496041Y-87560000D01*
X163496041Y-90440000D02*
X163496041Y-94396000D01*
X163536041Y-83628000D02*
X163536041Y-87560000D01*
X163536041Y-90440000D02*
X163536041Y-94372000D01*
X163576041Y-83653000D02*
X163576041Y-87560000D01*
X163576041Y-90440000D02*
X163576041Y-94347000D01*
X163616041Y-83679000D02*
X163616041Y-87560000D01*
X163616041Y-90440000D02*
X163616041Y-94321000D01*
X163656041Y-83705000D02*
X163656041Y-87560000D01*
X163656041Y-90440000D02*
X163656041Y-94295000D01*
X163696041Y-83731000D02*
X163696041Y-87560000D01*
X163696041Y-90440000D02*
X163696041Y-94269000D01*
X163736041Y-83758000D02*
X163736041Y-87560000D01*
X163736041Y-90440000D02*
X163736041Y-94242000D01*
X163776041Y-83785000D02*
X163776041Y-87560000D01*
X163776041Y-90440000D02*
X163776041Y-94215000D01*
X163816041Y-83812000D02*
X163816041Y-87560000D01*
X163816041Y-90440000D02*
X163816041Y-94188000D01*
X163856041Y-83841000D02*
X163856041Y-87560000D01*
X163856041Y-90440000D02*
X163856041Y-94159000D01*
X163896041Y-83869000D02*
X163896041Y-87560000D01*
X163896041Y-90440000D02*
X163896041Y-94131000D01*
X163936041Y-83898000D02*
X163936041Y-87560000D01*
X163936041Y-90440000D02*
X163936041Y-94102000D01*
X163976041Y-83928000D02*
X163976041Y-87560000D01*
X163976041Y-90440000D02*
X163976041Y-94072000D01*
X164016041Y-83958000D02*
X164016041Y-87560000D01*
X164016041Y-90440000D02*
X164016041Y-94042000D01*
X164056041Y-83988000D02*
X164056041Y-87560000D01*
X164056041Y-90440000D02*
X164056041Y-94012000D01*
X164096041Y-84019000D02*
X164096041Y-87560000D01*
X164096041Y-90440000D02*
X164096041Y-93981000D01*
X164136041Y-84050000D02*
X164136041Y-93950000D01*
X164176041Y-84082000D02*
X164176041Y-93918000D01*
X164216041Y-84115000D02*
X164216041Y-93885000D01*
X164256041Y-84148000D02*
X164256041Y-93852000D01*
X164296041Y-84182000D02*
X164296041Y-93818000D01*
X164336041Y-84216000D02*
X164336041Y-93784000D01*
X164376041Y-84251000D02*
X164376041Y-93749000D01*
X164416041Y-84286000D02*
X164416041Y-93714000D01*
X164456041Y-84322000D02*
X164456041Y-93678000D01*
X164496041Y-84359000D02*
X164496041Y-93641000D01*
X164536041Y-84396000D02*
X164536041Y-93604000D01*
X164576041Y-84434000D02*
X164576041Y-93566000D01*
X164616041Y-84472000D02*
X164616041Y-93528000D01*
X164656041Y-84512000D02*
X164656041Y-93488000D01*
X164696041Y-84552000D02*
X164696041Y-93448000D01*
X164736041Y-84592000D02*
X164736041Y-93408000D01*
X164776041Y-84634000D02*
X164776041Y-93366000D01*
X164816041Y-84676000D02*
X164816041Y-93324000D01*
X164856041Y-84719000D02*
X164856041Y-93281000D01*
X164896041Y-84762000D02*
X164896041Y-93238000D01*
X164936041Y-84807000D02*
X164936041Y-93193000D01*
X164976041Y-84852000D02*
X164976041Y-93148000D01*
X165016041Y-84899000D02*
X165016041Y-93101000D01*
X165056041Y-84946000D02*
X165056041Y-93054000D01*
X165096041Y-84994000D02*
X165096041Y-93006000D01*
X165136041Y-85043000D02*
X165136041Y-92957000D01*
X165176041Y-85093000D02*
X165176041Y-92907000D01*
X165216041Y-85144000D02*
X165216041Y-92856000D01*
X165256041Y-85197000D02*
X165256041Y-92803000D01*
X165296041Y-85250000D02*
X165296041Y-92750000D01*
X165336041Y-85305000D02*
X165336041Y-92695000D01*
X165376041Y-85361000D02*
X165376041Y-92639000D01*
X165416041Y-85418000D02*
X165416041Y-92582000D01*
X165456041Y-85477000D02*
X165456041Y-92523000D01*
X165496041Y-85537000D02*
X165496041Y-92463000D01*
X165536041Y-85598000D02*
X165536041Y-92402000D01*
X165576041Y-85661000D02*
X165576041Y-92339000D01*
X165616041Y-85726000D02*
X165616041Y-92274000D01*
X165656041Y-85792000D02*
X165656041Y-92208000D01*
X165696041Y-85861000D02*
X165696041Y-92139000D01*
X165736041Y-85931000D02*
X165736041Y-92069000D01*
X165776041Y-86004000D02*
X165776041Y-91996000D01*
X165816041Y-86079000D02*
X165816041Y-91921000D01*
X165856041Y-86157000D02*
X165856041Y-91843000D01*
X165896041Y-86237000D02*
X165896041Y-91763000D01*
X165936041Y-86320000D02*
X165936041Y-91680000D01*
X165976041Y-86406000D02*
X165976041Y-91594000D01*
X166016041Y-86496000D02*
X166016041Y-91504000D01*
X166056041Y-86590000D02*
X166056041Y-91410000D01*
X166096041Y-86688000D02*
X166096041Y-91312000D01*
X166136041Y-86792000D02*
X166136041Y-91208000D01*
X166176041Y-86901000D02*
X166176041Y-91099000D01*
X166216041Y-87016000D02*
X166216041Y-90984000D01*
X166256041Y-87140000D02*
X166256041Y-90860000D01*
X166296041Y-87273000D02*
X166296041Y-90727000D01*
X166336041Y-87418000D02*
X166336041Y-90582000D01*
X166376041Y-87578000D02*
X166376041Y-90422000D01*
X166416041Y-87760000D02*
X166416041Y-90240000D01*
X166456041Y-87973000D02*
X166456041Y-90027000D01*
X166496041Y-88243000D02*
X166496041Y-89757000D01*
X166536041Y-88683000D02*
X166536041Y-89317000D01*
X166546041Y-89000000D02*
G75*
G02*
X153806041Y-89000000I-6370000J0D01*
G01*
X153806041Y-89000000D02*
G75*
G02*
X166546041Y-89000000I6370000J0D01*
G01*
%TO.C,C7*%
X153682918Y-71425000D02*
X154932918Y-71425000D01*
X154307918Y-70800000D02*
X154307918Y-72050000D01*
X160500000Y-68670000D02*
X160500000Y-81330000D01*
X160540000Y-68670000D02*
X160540000Y-81330000D01*
X160580000Y-68671000D02*
X160580000Y-81329000D01*
X160620000Y-68671000D02*
X160620000Y-81329000D01*
X160660000Y-68672000D02*
X160660000Y-81328000D01*
X160700000Y-68673000D02*
X160700000Y-81327000D01*
X160740000Y-68675000D02*
X160740000Y-81325000D01*
X160780000Y-68676000D02*
X160780000Y-81324000D01*
X160820000Y-68678000D02*
X160820000Y-81322000D01*
X160860000Y-68680000D02*
X160860000Y-81320000D01*
X160900000Y-68683000D02*
X160900000Y-81317000D01*
X160940000Y-68685000D02*
X160940000Y-81315000D01*
X160980000Y-68688000D02*
X160980000Y-81312000D01*
X161020000Y-68691000D02*
X161020000Y-81309000D01*
X161060000Y-68695000D02*
X161060000Y-81305000D01*
X161100000Y-68698000D02*
X161100000Y-81302000D01*
X161140000Y-68702000D02*
X161140000Y-81298000D01*
X161180000Y-68706000D02*
X161180000Y-81294000D01*
X161220000Y-68711000D02*
X161220000Y-81289000D01*
X161260000Y-68716000D02*
X161260000Y-81284000D01*
X161300000Y-68720000D02*
X161300000Y-81280000D01*
X161340000Y-68726000D02*
X161340000Y-81274000D01*
X161380000Y-68731000D02*
X161380000Y-81269000D01*
X161420000Y-68737000D02*
X161420000Y-81263000D01*
X161460000Y-68743000D02*
X161460000Y-81257000D01*
X161500000Y-68749000D02*
X161500000Y-81251000D01*
X161540000Y-68755000D02*
X161540000Y-81245000D01*
X161580000Y-68762000D02*
X161580000Y-73560000D01*
X161580000Y-76440000D02*
X161580000Y-81238000D01*
X161620000Y-68769000D02*
X161620000Y-73560000D01*
X161620000Y-76440000D02*
X161620000Y-81231000D01*
X161660000Y-68777000D02*
X161660000Y-73560000D01*
X161660000Y-76440000D02*
X161660000Y-81223000D01*
X161700000Y-68784000D02*
X161700000Y-73560000D01*
X161700000Y-76440000D02*
X161700000Y-81216000D01*
X161740000Y-68792000D02*
X161740000Y-73560000D01*
X161740000Y-76440000D02*
X161740000Y-81208000D01*
X161780000Y-68800000D02*
X161780000Y-73560000D01*
X161780000Y-76440000D02*
X161780000Y-81200000D01*
X161820000Y-68808000D02*
X161820000Y-73560000D01*
X161820000Y-76440000D02*
X161820000Y-81192000D01*
X161860000Y-68817000D02*
X161860000Y-73560000D01*
X161860000Y-76440000D02*
X161860000Y-81183000D01*
X161900000Y-68826000D02*
X161900000Y-73560000D01*
X161900000Y-76440000D02*
X161900000Y-81174000D01*
X161940000Y-68835000D02*
X161940000Y-73560000D01*
X161940000Y-76440000D02*
X161940000Y-81165000D01*
X161980000Y-68844000D02*
X161980000Y-73560000D01*
X161980000Y-76440000D02*
X161980000Y-81156000D01*
X162020000Y-68854000D02*
X162020000Y-73560000D01*
X162020000Y-76440000D02*
X162020000Y-81146000D01*
X162060000Y-68864000D02*
X162060000Y-73560000D01*
X162060000Y-76440000D02*
X162060000Y-81136000D01*
X162100000Y-68874000D02*
X162100000Y-73560000D01*
X162100000Y-76440000D02*
X162100000Y-81126000D01*
X162140000Y-68885000D02*
X162140000Y-73560000D01*
X162140000Y-76440000D02*
X162140000Y-81115000D01*
X162180000Y-68896000D02*
X162180000Y-73560000D01*
X162180000Y-76440000D02*
X162180000Y-81104000D01*
X162220000Y-68907000D02*
X162220000Y-73560000D01*
X162220000Y-76440000D02*
X162220000Y-81093000D01*
X162260000Y-68918000D02*
X162260000Y-73560000D01*
X162260000Y-76440000D02*
X162260000Y-81082000D01*
X162300000Y-68930000D02*
X162300000Y-73560000D01*
X162300000Y-76440000D02*
X162300000Y-81070000D01*
X162340000Y-68942000D02*
X162340000Y-73560000D01*
X162340000Y-76440000D02*
X162340000Y-81058000D01*
X162380000Y-68954000D02*
X162380000Y-73560000D01*
X162380000Y-76440000D02*
X162380000Y-81046000D01*
X162420000Y-68966000D02*
X162420000Y-73560000D01*
X162420000Y-76440000D02*
X162420000Y-81034000D01*
X162460000Y-68979000D02*
X162460000Y-73560000D01*
X162460000Y-76440000D02*
X162460000Y-81021000D01*
X162500000Y-68992000D02*
X162500000Y-73560000D01*
X162500000Y-76440000D02*
X162500000Y-81008000D01*
X162540000Y-69005000D02*
X162540000Y-73560000D01*
X162540000Y-76440000D02*
X162540000Y-80995000D01*
X162580000Y-69019000D02*
X162580000Y-73560000D01*
X162580000Y-76440000D02*
X162580000Y-80981000D01*
X162620000Y-69033000D02*
X162620000Y-73560000D01*
X162620000Y-76440000D02*
X162620000Y-80967000D01*
X162660000Y-69047000D02*
X162660000Y-73560000D01*
X162660000Y-76440000D02*
X162660000Y-80953000D01*
X162700000Y-69062000D02*
X162700000Y-73560000D01*
X162700000Y-76440000D02*
X162700000Y-80938000D01*
X162740000Y-69077000D02*
X162740000Y-73560000D01*
X162740000Y-76440000D02*
X162740000Y-80923000D01*
X162780000Y-69092000D02*
X162780000Y-73560000D01*
X162780000Y-76440000D02*
X162780000Y-80908000D01*
X162820000Y-69108000D02*
X162820000Y-73560000D01*
X162820000Y-76440000D02*
X162820000Y-80892000D01*
X162860000Y-69123000D02*
X162860000Y-73560000D01*
X162860000Y-76440000D02*
X162860000Y-80877000D01*
X162900000Y-69139000D02*
X162900000Y-73560000D01*
X162900000Y-76440000D02*
X162900000Y-80861000D01*
X162940000Y-69156000D02*
X162940000Y-73560000D01*
X162940000Y-76440000D02*
X162940000Y-80844000D01*
X162980000Y-69173000D02*
X162980000Y-73560000D01*
X162980000Y-76440000D02*
X162980000Y-80827000D01*
X163020000Y-69190000D02*
X163020000Y-73560000D01*
X163020000Y-76440000D02*
X163020000Y-80810000D01*
X163060000Y-69207000D02*
X163060000Y-73560000D01*
X163060000Y-76440000D02*
X163060000Y-80793000D01*
X163100000Y-69225000D02*
X163100000Y-73560000D01*
X163100000Y-76440000D02*
X163100000Y-80775000D01*
X163140000Y-69243000D02*
X163140000Y-73560000D01*
X163140000Y-76440000D02*
X163140000Y-80757000D01*
X163180000Y-69261000D02*
X163180000Y-73560000D01*
X163180000Y-76440000D02*
X163180000Y-80739000D01*
X163220000Y-69280000D02*
X163220000Y-73560000D01*
X163220000Y-76440000D02*
X163220000Y-80720000D01*
X163260000Y-69299000D02*
X163260000Y-73560000D01*
X163260000Y-76440000D02*
X163260000Y-80701000D01*
X163300000Y-69318000D02*
X163300000Y-73560000D01*
X163300000Y-76440000D02*
X163300000Y-80682000D01*
X163340000Y-69338000D02*
X163340000Y-73560000D01*
X163340000Y-76440000D02*
X163340000Y-80662000D01*
X163380000Y-69358000D02*
X163380000Y-73560000D01*
X163380000Y-76440000D02*
X163380000Y-80642000D01*
X163420000Y-69379000D02*
X163420000Y-73560000D01*
X163420000Y-76440000D02*
X163420000Y-80621000D01*
X163460000Y-69399000D02*
X163460000Y-73560000D01*
X163460000Y-76440000D02*
X163460000Y-80601000D01*
X163500000Y-69421000D02*
X163500000Y-73560000D01*
X163500000Y-76440000D02*
X163500000Y-80579000D01*
X163540000Y-69442000D02*
X163540000Y-73560000D01*
X163540000Y-76440000D02*
X163540000Y-80558000D01*
X163580000Y-69464000D02*
X163580000Y-73560000D01*
X163580000Y-76440000D02*
X163580000Y-80536000D01*
X163620000Y-69486000D02*
X163620000Y-73560000D01*
X163620000Y-76440000D02*
X163620000Y-80514000D01*
X163660000Y-69509000D02*
X163660000Y-73560000D01*
X163660000Y-76440000D02*
X163660000Y-80491000D01*
X163700000Y-69532000D02*
X163700000Y-73560000D01*
X163700000Y-76440000D02*
X163700000Y-80468000D01*
X163740000Y-69556000D02*
X163740000Y-73560000D01*
X163740000Y-76440000D02*
X163740000Y-80444000D01*
X163780000Y-69579000D02*
X163780000Y-73560000D01*
X163780000Y-76440000D02*
X163780000Y-80421000D01*
X163820000Y-69604000D02*
X163820000Y-73560000D01*
X163820000Y-76440000D02*
X163820000Y-80396000D01*
X163860000Y-69628000D02*
X163860000Y-73560000D01*
X163860000Y-76440000D02*
X163860000Y-80372000D01*
X163900000Y-69653000D02*
X163900000Y-73560000D01*
X163900000Y-76440000D02*
X163900000Y-80347000D01*
X163940000Y-69679000D02*
X163940000Y-73560000D01*
X163940000Y-76440000D02*
X163940000Y-80321000D01*
X163980000Y-69705000D02*
X163980000Y-73560000D01*
X163980000Y-76440000D02*
X163980000Y-80295000D01*
X164020000Y-69731000D02*
X164020000Y-73560000D01*
X164020000Y-76440000D02*
X164020000Y-80269000D01*
X164060000Y-69758000D02*
X164060000Y-73560000D01*
X164060000Y-76440000D02*
X164060000Y-80242000D01*
X164100000Y-69785000D02*
X164100000Y-73560000D01*
X164100000Y-76440000D02*
X164100000Y-80215000D01*
X164140000Y-69812000D02*
X164140000Y-73560000D01*
X164140000Y-76440000D02*
X164140000Y-80188000D01*
X164180000Y-69841000D02*
X164180000Y-73560000D01*
X164180000Y-76440000D02*
X164180000Y-80159000D01*
X164220000Y-69869000D02*
X164220000Y-73560000D01*
X164220000Y-76440000D02*
X164220000Y-80131000D01*
X164260000Y-69898000D02*
X164260000Y-73560000D01*
X164260000Y-76440000D02*
X164260000Y-80102000D01*
X164300000Y-69928000D02*
X164300000Y-73560000D01*
X164300000Y-76440000D02*
X164300000Y-80072000D01*
X164340000Y-69958000D02*
X164340000Y-73560000D01*
X164340000Y-76440000D02*
X164340000Y-80042000D01*
X164380000Y-69988000D02*
X164380000Y-73560000D01*
X164380000Y-76440000D02*
X164380000Y-80012000D01*
X164420000Y-70019000D02*
X164420000Y-73560000D01*
X164420000Y-76440000D02*
X164420000Y-79981000D01*
X164460000Y-70050000D02*
X164460000Y-79950000D01*
X164500000Y-70082000D02*
X164500000Y-79918000D01*
X164540000Y-70115000D02*
X164540000Y-79885000D01*
X164580000Y-70148000D02*
X164580000Y-79852000D01*
X164620000Y-70182000D02*
X164620000Y-79818000D01*
X164660000Y-70216000D02*
X164660000Y-79784000D01*
X164700000Y-70251000D02*
X164700000Y-79749000D01*
X164740000Y-70286000D02*
X164740000Y-79714000D01*
X164780000Y-70322000D02*
X164780000Y-79678000D01*
X164820000Y-70359000D02*
X164820000Y-79641000D01*
X164860000Y-70396000D02*
X164860000Y-79604000D01*
X164900000Y-70434000D02*
X164900000Y-79566000D01*
X164940000Y-70472000D02*
X164940000Y-79528000D01*
X164980000Y-70512000D02*
X164980000Y-79488000D01*
X165020000Y-70552000D02*
X165020000Y-79448000D01*
X165060000Y-70592000D02*
X165060000Y-79408000D01*
X165100000Y-70634000D02*
X165100000Y-79366000D01*
X165140000Y-70676000D02*
X165140000Y-79324000D01*
X165180000Y-70719000D02*
X165180000Y-79281000D01*
X165220000Y-70762000D02*
X165220000Y-79238000D01*
X165260000Y-70807000D02*
X165260000Y-79193000D01*
X165300000Y-70852000D02*
X165300000Y-79148000D01*
X165340000Y-70899000D02*
X165340000Y-79101000D01*
X165380000Y-70946000D02*
X165380000Y-79054000D01*
X165420000Y-70994000D02*
X165420000Y-79006000D01*
X165460000Y-71043000D02*
X165460000Y-78957000D01*
X165500000Y-71093000D02*
X165500000Y-78907000D01*
X165540000Y-71144000D02*
X165540000Y-78856000D01*
X165580000Y-71197000D02*
X165580000Y-78803000D01*
X165620000Y-71250000D02*
X165620000Y-78750000D01*
X165660000Y-71305000D02*
X165660000Y-78695000D01*
X165700000Y-71361000D02*
X165700000Y-78639000D01*
X165740000Y-71418000D02*
X165740000Y-78582000D01*
X165780000Y-71477000D02*
X165780000Y-78523000D01*
X165820000Y-71537000D02*
X165820000Y-78463000D01*
X165860000Y-71598000D02*
X165860000Y-78402000D01*
X165900000Y-71661000D02*
X165900000Y-78339000D01*
X165940000Y-71726000D02*
X165940000Y-78274000D01*
X165980000Y-71792000D02*
X165980000Y-78208000D01*
X166020000Y-71861000D02*
X166020000Y-78139000D01*
X166060000Y-71931000D02*
X166060000Y-78069000D01*
X166100000Y-72004000D02*
X166100000Y-77996000D01*
X166140000Y-72079000D02*
X166140000Y-77921000D01*
X166180000Y-72157000D02*
X166180000Y-77843000D01*
X166220000Y-72237000D02*
X166220000Y-77763000D01*
X166260000Y-72320000D02*
X166260000Y-77680000D01*
X166300000Y-72406000D02*
X166300000Y-77594000D01*
X166340000Y-72496000D02*
X166340000Y-77504000D01*
X166380000Y-72590000D02*
X166380000Y-77410000D01*
X166420000Y-72688000D02*
X166420000Y-77312000D01*
X166460000Y-72792000D02*
X166460000Y-77208000D01*
X166500000Y-72901000D02*
X166500000Y-77099000D01*
X166540000Y-73016000D02*
X166540000Y-76984000D01*
X166580000Y-73140000D02*
X166580000Y-76860000D01*
X166620000Y-73273000D02*
X166620000Y-76727000D01*
X166660000Y-73418000D02*
X166660000Y-76582000D01*
X166700000Y-73578000D02*
X166700000Y-76422000D01*
X166740000Y-73760000D02*
X166740000Y-76240000D01*
X166780000Y-73973000D02*
X166780000Y-76027000D01*
X166820000Y-74243000D02*
X166820000Y-75757000D01*
X166860000Y-74683000D02*
X166860000Y-75317000D01*
X166870000Y-75000000D02*
G75*
G02*
X154130000Y-75000000I-6370000J0D01*
G01*
X154130000Y-75000000D02*
G75*
G02*
X166870000Y-75000000I6370000J0D01*
G01*
%TO.C,C1*%
X153265000Y-81688748D02*
X153265000Y-82211252D01*
X154735000Y-81688748D02*
X154735000Y-82211252D01*
%TD*%
M02*
