%TF.GenerationSoftware,KiCad,Pcbnew,9.0.1*%
%TF.CreationDate,2025-07-01T13:45:27+02:00*%
%TF.ProjectId,BatteryBackup,42617474-6572-4794-9261-636b75702e6b,rev?*%
%TF.SameCoordinates,Original*%
%TF.FileFunction,Copper,L2,Bot*%
%TF.FilePolarity,Positive*%
%FSLAX46Y46*%
G04 Gerber Fmt 4.6, Leading zero omitted, Abs format (unit mm)*
G04 Created by KiCad (PCBNEW 9.0.1) date 2025-07-01 13:45:27*
%MOMM*%
%LPD*%
G01*
G04 APERTURE LIST*
G04 Aperture macros list*
%AMRoundRect*
0 Rectangle with rounded corners*
0 $1 Rounding radius*
0 $2 $3 $4 $5 $6 $7 $8 $9 X,Y pos of 4 corners*
0 Add a 4 corners polygon primitive as box body*
4,1,4,$2,$3,$4,$5,$6,$7,$8,$9,$2,$3,0*
0 Add four circle primitives for the rounded corners*
1,1,$1+$1,$2,$3*
1,1,$1+$1,$4,$5*
1,1,$1+$1,$6,$7*
1,1,$1+$1,$8,$9*
0 Add four rect primitives between the rounded corners*
20,1,$1+$1,$2,$3,$4,$5,0*
20,1,$1+$1,$4,$5,$6,$7,0*
20,1,$1+$1,$6,$7,$8,$9,0*
20,1,$1+$1,$8,$9,$2,$3,0*%
G04 Aperture macros list end*
%TA.AperFunction,ComponentPad*%
%ADD10RoundRect,0.250001X0.759999X-0.499999X0.759999X0.499999X-0.759999X0.499999X-0.759999X-0.499999X0*%
%TD*%
%TA.AperFunction,ComponentPad*%
%ADD11O,2.020000X1.500000*%
%TD*%
%TA.AperFunction,ComponentPad*%
%ADD12RoundRect,0.250001X-0.759999X0.499999X-0.759999X-0.499999X0.759999X-0.499999X0.759999X0.499999X0*%
%TD*%
%TA.AperFunction,ComponentPad*%
%ADD13R,2.400000X2.400000*%
%TD*%
%TA.AperFunction,ComponentPad*%
%ADD14C,2.400000*%
%TD*%
%TA.AperFunction,ViaPad*%
%ADD15C,0.600000*%
%TD*%
%TA.AperFunction,Conductor*%
%ADD16C,0.254000*%
%TD*%
G04 APERTURE END LIST*
D10*
%TO.P,J1,1,Pin_1*%
%TO.N,/IdealDiode/Vin*%
X137965000Y-92500000D03*
D11*
%TO.P,J1,2,Pin_2*%
%TO.N,GND*%
X137965000Y-89500000D03*
%TD*%
D10*
%TO.P,J2,1,Pin_1*%
%TO.N,/IdealDiode1/Vin*%
X137965000Y-79500000D03*
D11*
%TO.P,J2,2,Pin_2*%
%TO.N,GND*%
X137965000Y-76500000D03*
%TD*%
D12*
%TO.P,J3,1,Pin_1*%
%TO.N,/IdealDiode/Vout*%
X169000000Y-80500000D03*
D11*
%TO.P,J3,2,Pin_2*%
%TO.N,GND*%
X169000000Y-83500000D03*
%TD*%
D13*
%TO.P,C2,1*%
%TO.N,/IdealDiode/Vout*%
X157676041Y-89000000D03*
D14*
%TO.P,C2,2*%
%TO.N,GND*%
X162676041Y-89000000D03*
%TD*%
D13*
%TO.P,C7,1*%
%TO.N,/IdealDiode/Vout*%
X158000000Y-75000000D03*
D14*
%TO.P,C7,2*%
%TO.N,GND*%
X163000000Y-75000000D03*
%TD*%
D15*
%TO.N,GND*%
X142250000Y-84250000D03*
X140750000Y-73500000D03*
X140750000Y-86500000D03*
X152750000Y-83250000D03*
X140000000Y-90250000D03*
X143000000Y-82000000D03*
X139750000Y-70000000D03*
X142250000Y-71250000D03*
X140000000Y-77250000D03*
%TO.N,/IdealDiode/Vout*%
X146500000Y-85000000D03*
X141000000Y-88750000D03*
%TD*%
D16*
%TO.N,/IdealDiode/Vout*%
X141000000Y-88750000D02*
X142750000Y-88750000D01*
X142750000Y-88750000D02*
X146500000Y-85000000D01*
%TD*%
%TA.AperFunction,Conductor*%
%TO.N,GND*%
G36*
X177442539Y-67520185D02*
G01*
X177488294Y-67572989D01*
X177499500Y-67624500D01*
X177499500Y-98375500D01*
X177479815Y-98442539D01*
X177427011Y-98488294D01*
X177375500Y-98499500D01*
X129624500Y-98499500D01*
X129557461Y-98479815D01*
X129511706Y-98427011D01*
X129500500Y-98375500D01*
X129500500Y-90885258D01*
X131894500Y-90885258D01*
X131894500Y-91114741D01*
X131913625Y-91260000D01*
X131924452Y-91342238D01*
X131975123Y-91531348D01*
X131983842Y-91563887D01*
X132071650Y-91775876D01*
X132071657Y-91775890D01*
X132186392Y-91974617D01*
X132326081Y-92156661D01*
X132326089Y-92156670D01*
X132488330Y-92318911D01*
X132488338Y-92318918D01*
X132670382Y-92458607D01*
X132670385Y-92458608D01*
X132670388Y-92458611D01*
X132869112Y-92573344D01*
X132869117Y-92573346D01*
X132869123Y-92573349D01*
X132960480Y-92611190D01*
X133081113Y-92661158D01*
X133302762Y-92720548D01*
X133530266Y-92750500D01*
X133530273Y-92750500D01*
X133759727Y-92750500D01*
X133759734Y-92750500D01*
X133987238Y-92720548D01*
X134208887Y-92661158D01*
X134420888Y-92573344D01*
X134619612Y-92458611D01*
X134801661Y-92318919D01*
X134801665Y-92318914D01*
X134801670Y-92318911D01*
X134963911Y-92156670D01*
X134963914Y-92156665D01*
X134963919Y-92156661D01*
X135103611Y-91974612D01*
X135117830Y-91949984D01*
X136454500Y-91949984D01*
X136454500Y-93050015D01*
X136465000Y-93152795D01*
X136465001Y-93152796D01*
X136520186Y-93319335D01*
X136520187Y-93319337D01*
X136612286Y-93468651D01*
X136612289Y-93468655D01*
X136736344Y-93592710D01*
X136736348Y-93592713D01*
X136885662Y-93684812D01*
X136885664Y-93684813D01*
X136885666Y-93684814D01*
X137052203Y-93739999D01*
X137154992Y-93750500D01*
X137154997Y-93750500D01*
X138775003Y-93750500D01*
X138775008Y-93750500D01*
X138877797Y-93739999D01*
X139044334Y-93684814D01*
X139193655Y-93592711D01*
X139317711Y-93468655D01*
X139409814Y-93319334D01*
X139464999Y-93152797D01*
X139475500Y-93050008D01*
X139475500Y-91949992D01*
X139464999Y-91847203D01*
X139409814Y-91680666D01*
X139337783Y-91563887D01*
X139317713Y-91531348D01*
X139317710Y-91531344D01*
X139193655Y-91407289D01*
X139193651Y-91407286D01*
X139044337Y-91315187D01*
X139044335Y-91315186D01*
X138961065Y-91287593D01*
X138877797Y-91260001D01*
X138877795Y-91260000D01*
X138775015Y-91249500D01*
X138775008Y-91249500D01*
X137154992Y-91249500D01*
X137154984Y-91249500D01*
X137052204Y-91260000D01*
X137052203Y-91260001D01*
X136885664Y-91315186D01*
X136885662Y-91315187D01*
X136736348Y-91407286D01*
X136736344Y-91407289D01*
X136612289Y-91531344D01*
X136612286Y-91531348D01*
X136520187Y-91680662D01*
X136520186Y-91680664D01*
X136465001Y-91847203D01*
X136465000Y-91847204D01*
X136454500Y-91949984D01*
X135117830Y-91949984D01*
X135218344Y-91775888D01*
X135306158Y-91563887D01*
X135365548Y-91342238D01*
X135395500Y-91114734D01*
X135395500Y-90885266D01*
X135365548Y-90657762D01*
X135306158Y-90436113D01*
X135251744Y-90304747D01*
X135218349Y-90224123D01*
X135218346Y-90224117D01*
X135218344Y-90224112D01*
X135103611Y-90025388D01*
X135103608Y-90025385D01*
X135103607Y-90025382D01*
X134963918Y-89843338D01*
X134963911Y-89843330D01*
X134801670Y-89681089D01*
X134801661Y-89681081D01*
X134619617Y-89541392D01*
X134582109Y-89519737D01*
X134477585Y-89459390D01*
X134420890Y-89426657D01*
X134420876Y-89426650D01*
X134360459Y-89401625D01*
X134208887Y-89338842D01*
X134184673Y-89332354D01*
X133987238Y-89279452D01*
X133949215Y-89274446D01*
X133763539Y-89250000D01*
X136479016Y-89250000D01*
X137520440Y-89250000D01*
X137489755Y-89303147D01*
X137455000Y-89432857D01*
X137455000Y-89567143D01*
X137489755Y-89696853D01*
X137520440Y-89750000D01*
X136479016Y-89750000D01*
X136485781Y-89792716D01*
X136546581Y-89979837D01*
X136635904Y-90155143D01*
X136751555Y-90314321D01*
X136890678Y-90453444D01*
X137049856Y-90569095D01*
X137225164Y-90658418D01*
X137412294Y-90719221D01*
X137606618Y-90750000D01*
X137715000Y-90750000D01*
X137715000Y-89944560D01*
X137768147Y-89975245D01*
X137897857Y-90010000D01*
X138032143Y-90010000D01*
X138161853Y-89975245D01*
X138215000Y-89944560D01*
X138215000Y-90750000D01*
X138323382Y-90750000D01*
X138517705Y-90719221D01*
X138704835Y-90658418D01*
X138880143Y-90569095D01*
X139039321Y-90453444D01*
X139178444Y-90314321D01*
X139294095Y-90155143D01*
X139383418Y-89979837D01*
X139444218Y-89792716D01*
X139450984Y-89750000D01*
X138409560Y-89750000D01*
X138440245Y-89696853D01*
X138475000Y-89567143D01*
X138475000Y-89432857D01*
X138440245Y-89303147D01*
X138409560Y-89250000D01*
X139450984Y-89250000D01*
X139444218Y-89207283D01*
X139383418Y-89020162D01*
X139294095Y-88844856D01*
X139216424Y-88737952D01*
X139216423Y-88737949D01*
X139178450Y-88685686D01*
X139178443Y-88685677D01*
X139163919Y-88671153D01*
X140199500Y-88671153D01*
X140199500Y-88828846D01*
X140230261Y-88983489D01*
X140230264Y-88983501D01*
X140290602Y-89129172D01*
X140290609Y-89129185D01*
X140378210Y-89260288D01*
X140378213Y-89260292D01*
X140489707Y-89371786D01*
X140489711Y-89371789D01*
X140620814Y-89459390D01*
X140620827Y-89459397D01*
X140766498Y-89519735D01*
X140766503Y-89519737D01*
X140921153Y-89550499D01*
X140921156Y-89550500D01*
X140921158Y-89550500D01*
X141078844Y-89550500D01*
X141078845Y-89550499D01*
X141233497Y-89519737D01*
X141379179Y-89459394D01*
X141470466Y-89398398D01*
X141537143Y-89377520D01*
X141539357Y-89377500D01*
X142811804Y-89377500D01*
X142811805Y-89377499D01*
X142933035Y-89353386D01*
X143013784Y-89319937D01*
X143047233Y-89306083D01*
X143150008Y-89237411D01*
X143237411Y-89150008D01*
X144635283Y-87752135D01*
X155975541Y-87752135D01*
X155975541Y-90247870D01*
X155975542Y-90247876D01*
X155981949Y-90307483D01*
X156032243Y-90442328D01*
X156032247Y-90442335D01*
X156118493Y-90557544D01*
X156118496Y-90557547D01*
X156233705Y-90643793D01*
X156233712Y-90643797D01*
X156368558Y-90694091D01*
X156368557Y-90694091D01*
X156375485Y-90694835D01*
X156428168Y-90700500D01*
X158923913Y-90700499D01*
X158983524Y-90694091D01*
X159118372Y-90643796D01*
X159233587Y-90557546D01*
X159319837Y-90442331D01*
X159370132Y-90307483D01*
X159376541Y-90247873D01*
X159376540Y-88888575D01*
X160976041Y-88888575D01*
X160976041Y-89111424D01*
X161005126Y-89332354D01*
X161005129Y-89332367D01*
X161062804Y-89547618D01*
X161148086Y-89753502D01*
X161148095Y-89753520D01*
X161259505Y-89946491D01*
X161259514Y-89946504D01*
X161310081Y-90012403D01*
X161310084Y-90012403D01*
X162111428Y-89211059D01*
X162116930Y-89231591D01*
X162195922Y-89368408D01*
X162307633Y-89480119D01*
X162444450Y-89559111D01*
X162464981Y-89564612D01*
X161663636Y-90365955D01*
X161663636Y-90365956D01*
X161729548Y-90416533D01*
X161922526Y-90527949D01*
X161922538Y-90527954D01*
X162128422Y-90613236D01*
X162343673Y-90670911D01*
X162343686Y-90670914D01*
X162564616Y-90700000D01*
X162787466Y-90700000D01*
X163008395Y-90670914D01*
X163008408Y-90670911D01*
X163223659Y-90613236D01*
X163429543Y-90527954D01*
X163429555Y-90527949D01*
X163622539Y-90416530D01*
X163688444Y-90365957D01*
X163688445Y-90365956D01*
X162887100Y-89564612D01*
X162907632Y-89559111D01*
X163044449Y-89480119D01*
X163156160Y-89368408D01*
X163235152Y-89231591D01*
X163240653Y-89211059D01*
X164041997Y-90012404D01*
X164041998Y-90012403D01*
X164092571Y-89946498D01*
X164203990Y-89753514D01*
X164203995Y-89753502D01*
X164289277Y-89547618D01*
X164346952Y-89332367D01*
X164346955Y-89332354D01*
X164376041Y-89111424D01*
X164376041Y-88888575D01*
X164346955Y-88667645D01*
X164346952Y-88667632D01*
X164289277Y-88452381D01*
X164203995Y-88246497D01*
X164203990Y-88246485D01*
X164092574Y-88053507D01*
X164041997Y-87987595D01*
X164041996Y-87987595D01*
X163240653Y-88788939D01*
X163235152Y-88768409D01*
X163156160Y-88631592D01*
X163044449Y-88519881D01*
X162907632Y-88440889D01*
X162887099Y-88435387D01*
X163688444Y-87634043D01*
X163688444Y-87634040D01*
X163622545Y-87583473D01*
X163622532Y-87583464D01*
X163429561Y-87472054D01*
X163429543Y-87472045D01*
X163223659Y-87386763D01*
X163008408Y-87329088D01*
X163008395Y-87329085D01*
X162787466Y-87300000D01*
X162564616Y-87300000D01*
X162343686Y-87329085D01*
X162343673Y-87329088D01*
X162128422Y-87386763D01*
X161922538Y-87472045D01*
X161922520Y-87472054D01*
X161729552Y-87583462D01*
X161663636Y-87634042D01*
X162464982Y-88435387D01*
X162444450Y-88440889D01*
X162307633Y-88519881D01*
X162195922Y-88631592D01*
X162116930Y-88768409D01*
X162111428Y-88788940D01*
X161310083Y-87987595D01*
X161259503Y-88053511D01*
X161148095Y-88246479D01*
X161148086Y-88246497D01*
X161062804Y-88452381D01*
X161005129Y-88667632D01*
X161005126Y-88667645D01*
X160976041Y-88888575D01*
X159376540Y-88888575D01*
X159376540Y-87752128D01*
X159370426Y-87695248D01*
X159370426Y-87695246D01*
X159370133Y-87692519D01*
X159319838Y-87557671D01*
X159319834Y-87557664D01*
X159233588Y-87442455D01*
X159233585Y-87442452D01*
X159118376Y-87356206D01*
X159118369Y-87356202D01*
X158983523Y-87305908D01*
X158983524Y-87305908D01*
X158923924Y-87299501D01*
X158923922Y-87299500D01*
X158923914Y-87299500D01*
X158923905Y-87299500D01*
X156428170Y-87299500D01*
X156428164Y-87299501D01*
X156368557Y-87305908D01*
X156233712Y-87356202D01*
X156233705Y-87356206D01*
X156118496Y-87442452D01*
X156118493Y-87442455D01*
X156032247Y-87557664D01*
X156032243Y-87557671D01*
X155981949Y-87692517D01*
X155975542Y-87752116D01*
X155975542Y-87752123D01*
X155975541Y-87752135D01*
X144635283Y-87752135D01*
X146562328Y-85825089D01*
X146623649Y-85791606D01*
X146625648Y-85791189D01*
X146733497Y-85769737D01*
X146879179Y-85709394D01*
X147010289Y-85621789D01*
X147121789Y-85510289D01*
X147209394Y-85379179D01*
X147269737Y-85233497D01*
X147300500Y-85078842D01*
X147300500Y-84921158D01*
X147300500Y-84921155D01*
X147300499Y-84921153D01*
X147269738Y-84766510D01*
X147269738Y-84766508D01*
X147269737Y-84766503D01*
X147262901Y-84750000D01*
X147209397Y-84620827D01*
X147209390Y-84620814D01*
X147121789Y-84489711D01*
X147121786Y-84489707D01*
X147010292Y-84378213D01*
X147010288Y-84378210D01*
X146879185Y-84290609D01*
X146879172Y-84290602D01*
X146733501Y-84230264D01*
X146733489Y-84230261D01*
X146578845Y-84199500D01*
X146578842Y-84199500D01*
X146421158Y-84199500D01*
X146421155Y-84199500D01*
X146266510Y-84230261D01*
X146266498Y-84230264D01*
X146120827Y-84290602D01*
X146120814Y-84290609D01*
X145989711Y-84378210D01*
X145989707Y-84378213D01*
X145878213Y-84489707D01*
X145878210Y-84489711D01*
X145790609Y-84620814D01*
X145790602Y-84620827D01*
X145730264Y-84766498D01*
X145730261Y-84766508D01*
X145708843Y-84874183D01*
X145676458Y-84936094D01*
X145674907Y-84937672D01*
X142526400Y-88086181D01*
X142465077Y-88119666D01*
X142438719Y-88122500D01*
X141539357Y-88122500D01*
X141472318Y-88102815D01*
X141470466Y-88101602D01*
X141379185Y-88040609D01*
X141379172Y-88040602D01*
X141233501Y-87980264D01*
X141233489Y-87980261D01*
X141078845Y-87949500D01*
X141078842Y-87949500D01*
X140921158Y-87949500D01*
X140921155Y-87949500D01*
X140766510Y-87980261D01*
X140766498Y-87980264D01*
X140620827Y-88040602D01*
X140620814Y-88040609D01*
X140489711Y-88128210D01*
X140489707Y-88128213D01*
X140378213Y-88239707D01*
X140378210Y-88239711D01*
X140290609Y-88370814D01*
X140290602Y-88370827D01*
X140230264Y-88516498D01*
X140230261Y-88516510D01*
X140199500Y-88671153D01*
X139163919Y-88671153D01*
X139039321Y-88546555D01*
X138880143Y-88430904D01*
X138704835Y-88341581D01*
X138517705Y-88280778D01*
X138323382Y-88250000D01*
X138215000Y-88250000D01*
X138215000Y-89055439D01*
X138161853Y-89024755D01*
X138032143Y-88990000D01*
X137897857Y-88990000D01*
X137768147Y-89024755D01*
X137715000Y-89055439D01*
X137715000Y-88250000D01*
X137606618Y-88250000D01*
X137412294Y-88280778D01*
X137225164Y-88341581D01*
X137049856Y-88430904D01*
X136890678Y-88546555D01*
X136751555Y-88685678D01*
X136635904Y-88844856D01*
X136546581Y-89020162D01*
X136485781Y-89207283D01*
X136479016Y-89250000D01*
X133763539Y-89250000D01*
X133759741Y-89249500D01*
X133759734Y-89249500D01*
X133530266Y-89249500D01*
X133530258Y-89249500D01*
X133313715Y-89278009D01*
X133302762Y-89279452D01*
X133214330Y-89303147D01*
X133081112Y-89338842D01*
X132869123Y-89426650D01*
X132869109Y-89426657D01*
X132670382Y-89541392D01*
X132488338Y-89681081D01*
X132326081Y-89843338D01*
X132186392Y-90025382D01*
X132071657Y-90224109D01*
X132071650Y-90224123D01*
X131983842Y-90436112D01*
X131924453Y-90657759D01*
X131924451Y-90657770D01*
X131894500Y-90885258D01*
X129500500Y-90885258D01*
X129500500Y-83250000D01*
X167514016Y-83250000D01*
X168555440Y-83250000D01*
X168524755Y-83303147D01*
X168490000Y-83432857D01*
X168490000Y-83567143D01*
X168524755Y-83696853D01*
X168555440Y-83750000D01*
X167514016Y-83750000D01*
X167520781Y-83792716D01*
X167581581Y-83979837D01*
X167670904Y-84155143D01*
X167786555Y-84314321D01*
X167925678Y-84453444D01*
X168084856Y-84569095D01*
X168260164Y-84658418D01*
X168447294Y-84719221D01*
X168641618Y-84750000D01*
X168750000Y-84750000D01*
X168750000Y-83944560D01*
X168803147Y-83975245D01*
X168932857Y-84010000D01*
X169067143Y-84010000D01*
X169196853Y-83975245D01*
X169250000Y-83944560D01*
X169250000Y-84750000D01*
X169358382Y-84750000D01*
X169552705Y-84719221D01*
X169739835Y-84658418D01*
X169915143Y-84569095D01*
X170074321Y-84453444D01*
X170213444Y-84314321D01*
X170329095Y-84155143D01*
X170418418Y-83979837D01*
X170479218Y-83792716D01*
X170485984Y-83750000D01*
X169444560Y-83750000D01*
X169475245Y-83696853D01*
X169510000Y-83567143D01*
X169510000Y-83432857D01*
X169475245Y-83303147D01*
X169444560Y-83250000D01*
X170485984Y-83250000D01*
X170479218Y-83207283D01*
X170418418Y-83020162D01*
X170329095Y-82844856D01*
X170213444Y-82685678D01*
X170074321Y-82546555D01*
X169915143Y-82430904D01*
X169739835Y-82341581D01*
X169552705Y-82280778D01*
X169358382Y-82250000D01*
X169250000Y-82250000D01*
X169250000Y-83055439D01*
X169196853Y-83024755D01*
X169067143Y-82990000D01*
X168932857Y-82990000D01*
X168803147Y-83024755D01*
X168750000Y-83055439D01*
X168750000Y-82250000D01*
X168641618Y-82250000D01*
X168447294Y-82280778D01*
X168260164Y-82341581D01*
X168084856Y-82430904D01*
X167925678Y-82546555D01*
X167786555Y-82685678D01*
X167670904Y-82844856D01*
X167581581Y-83020162D01*
X167520781Y-83207283D01*
X167514016Y-83250000D01*
X129500500Y-83250000D01*
X129500500Y-81885258D01*
X171569500Y-81885258D01*
X171569500Y-82114741D01*
X171587308Y-82250000D01*
X171599452Y-82342238D01*
X171599453Y-82342240D01*
X171658842Y-82563887D01*
X171746650Y-82775876D01*
X171746657Y-82775890D01*
X171861392Y-82974617D01*
X172001081Y-83156661D01*
X172001089Y-83156670D01*
X172163330Y-83318911D01*
X172163338Y-83318918D01*
X172345382Y-83458607D01*
X172345385Y-83458608D01*
X172345388Y-83458611D01*
X172544112Y-83573344D01*
X172544117Y-83573346D01*
X172544123Y-83573349D01*
X172635480Y-83611190D01*
X172756113Y-83661158D01*
X172977762Y-83720548D01*
X173205266Y-83750500D01*
X173205273Y-83750500D01*
X173434727Y-83750500D01*
X173434734Y-83750500D01*
X173662238Y-83720548D01*
X173883887Y-83661158D01*
X174095888Y-83573344D01*
X174294612Y-83458611D01*
X174476661Y-83318919D01*
X174476665Y-83318914D01*
X174476670Y-83318911D01*
X174638911Y-83156670D01*
X174638914Y-83156665D01*
X174638919Y-83156661D01*
X174778611Y-82974612D01*
X174893344Y-82775888D01*
X174981158Y-82563887D01*
X175040548Y-82342238D01*
X175070500Y-82114734D01*
X175070500Y-81885266D01*
X175040548Y-81657762D01*
X174981158Y-81436113D01*
X174893344Y-81224112D01*
X174778611Y-81025388D01*
X174778608Y-81025385D01*
X174778607Y-81025382D01*
X174638918Y-80843338D01*
X174638911Y-80843330D01*
X174476670Y-80681089D01*
X174476661Y-80681081D01*
X174294617Y-80541392D01*
X174095890Y-80426657D01*
X174095876Y-80426650D01*
X173883887Y-80338842D01*
X173662238Y-80279452D01*
X173624215Y-80274446D01*
X173434741Y-80249500D01*
X173434734Y-80249500D01*
X173205266Y-80249500D01*
X173205258Y-80249500D01*
X172988715Y-80278009D01*
X172977762Y-80279452D01*
X172884076Y-80304554D01*
X172756112Y-80338842D01*
X172544123Y-80426650D01*
X172544109Y-80426657D01*
X172345382Y-80541392D01*
X172163338Y-80681081D01*
X172001081Y-80843338D01*
X171861392Y-81025382D01*
X171746657Y-81224109D01*
X171746650Y-81224123D01*
X171658842Y-81436112D01*
X171599453Y-81657759D01*
X171599451Y-81657770D01*
X171569500Y-81885258D01*
X129500500Y-81885258D01*
X129500500Y-77885258D01*
X131894500Y-77885258D01*
X131894500Y-78114741D01*
X131913625Y-78260000D01*
X131924452Y-78342238D01*
X131975123Y-78531348D01*
X131983842Y-78563887D01*
X132071650Y-78775876D01*
X132071657Y-78775890D01*
X132186392Y-78974617D01*
X132326081Y-79156661D01*
X132326089Y-79156670D01*
X132488330Y-79318911D01*
X132488338Y-79318918D01*
X132670382Y-79458607D01*
X132670385Y-79458608D01*
X132670388Y-79458611D01*
X132869112Y-79573344D01*
X132869117Y-79573346D01*
X132869123Y-79573349D01*
X132960480Y-79611190D01*
X133081113Y-79661158D01*
X133302762Y-79720548D01*
X133530266Y-79750500D01*
X133530273Y-79750500D01*
X133759727Y-79750500D01*
X133759734Y-79750500D01*
X133987238Y-79720548D01*
X134208887Y-79661158D01*
X134420888Y-79573344D01*
X134619612Y-79458611D01*
X134801661Y-79318919D01*
X134801665Y-79318914D01*
X134801670Y-79318911D01*
X134963911Y-79156670D01*
X134963914Y-79156665D01*
X134963919Y-79156661D01*
X135103611Y-78974612D01*
X135117830Y-78949984D01*
X136454500Y-78949984D01*
X136454500Y-80050015D01*
X136465000Y-80152795D01*
X136465001Y-80152796D01*
X136520186Y-80319335D01*
X136520187Y-80319337D01*
X136612286Y-80468651D01*
X136612289Y-80468655D01*
X136736344Y-80592710D01*
X136736348Y-80592713D01*
X136885662Y-80684812D01*
X136885664Y-80684813D01*
X136885666Y-80684814D01*
X137052203Y-80739999D01*
X137154992Y-80750500D01*
X137154997Y-80750500D01*
X138775003Y-80750500D01*
X138775008Y-80750500D01*
X138877797Y-80739999D01*
X139044334Y-80684814D01*
X139193655Y-80592711D01*
X139317711Y-80468655D01*
X139409814Y-80319334D01*
X139464999Y-80152797D01*
X139475500Y-80050008D01*
X139475500Y-79949984D01*
X167489500Y-79949984D01*
X167489500Y-81050015D01*
X167500000Y-81152795D01*
X167500001Y-81152797D01*
X167523636Y-81224123D01*
X167555186Y-81319335D01*
X167555187Y-81319337D01*
X167647286Y-81468651D01*
X167647289Y-81468655D01*
X167771344Y-81592710D01*
X167771348Y-81592713D01*
X167920662Y-81684812D01*
X167920664Y-81684813D01*
X167920666Y-81684814D01*
X168087203Y-81739999D01*
X168189992Y-81750500D01*
X168189997Y-81750500D01*
X169810003Y-81750500D01*
X169810008Y-81750500D01*
X169912797Y-81739999D01*
X170079334Y-81684814D01*
X170228655Y-81592711D01*
X170352711Y-81468655D01*
X170444814Y-81319334D01*
X170499999Y-81152797D01*
X170510500Y-81050008D01*
X170510500Y-79949992D01*
X170499999Y-79847203D01*
X170444814Y-79680666D01*
X170432781Y-79661158D01*
X170352713Y-79531348D01*
X170352710Y-79531344D01*
X170228655Y-79407289D01*
X170228651Y-79407286D01*
X170079337Y-79315187D01*
X170079335Y-79315186D01*
X169996065Y-79287593D01*
X169912797Y-79260001D01*
X169912795Y-79260000D01*
X169810015Y-79249500D01*
X169810008Y-79249500D01*
X168189992Y-79249500D01*
X168189984Y-79249500D01*
X168087204Y-79260000D01*
X168087203Y-79260001D01*
X167920664Y-79315186D01*
X167920662Y-79315187D01*
X167771348Y-79407286D01*
X167771344Y-79407289D01*
X167647289Y-79531344D01*
X167647286Y-79531348D01*
X167555187Y-79680662D01*
X167555186Y-79680664D01*
X167500001Y-79847203D01*
X167500000Y-79847204D01*
X167489500Y-79949984D01*
X139475500Y-79949984D01*
X139475500Y-78949992D01*
X139464999Y-78847203D01*
X139409814Y-78680666D01*
X139337783Y-78563887D01*
X139317713Y-78531348D01*
X139317710Y-78531344D01*
X139193655Y-78407289D01*
X139193651Y-78407286D01*
X139044337Y-78315187D01*
X139044335Y-78315186D01*
X138961065Y-78287593D01*
X138877797Y-78260001D01*
X138877795Y-78260000D01*
X138775015Y-78249500D01*
X138775008Y-78249500D01*
X137154992Y-78249500D01*
X137154984Y-78249500D01*
X137052204Y-78260000D01*
X137052203Y-78260001D01*
X136885664Y-78315186D01*
X136885662Y-78315187D01*
X136736348Y-78407286D01*
X136736344Y-78407289D01*
X136612289Y-78531344D01*
X136612286Y-78531348D01*
X136520187Y-78680662D01*
X136520186Y-78680664D01*
X136465001Y-78847203D01*
X136465000Y-78847204D01*
X136454500Y-78949984D01*
X135117830Y-78949984D01*
X135218344Y-78775888D01*
X135306158Y-78563887D01*
X135365548Y-78342238D01*
X135395500Y-78114734D01*
X135395500Y-77885266D01*
X135365548Y-77657762D01*
X135306158Y-77436113D01*
X135218344Y-77224112D01*
X135103611Y-77025388D01*
X135103608Y-77025385D01*
X135103607Y-77025382D01*
X134963918Y-76843338D01*
X134963911Y-76843330D01*
X134801670Y-76681089D01*
X134801661Y-76681081D01*
X134619617Y-76541392D01*
X134420890Y-76426657D01*
X134420876Y-76426650D01*
X134360459Y-76401625D01*
X134208887Y-76338842D01*
X134091863Y-76307486D01*
X133987238Y-76279452D01*
X133949215Y-76274446D01*
X133763539Y-76250000D01*
X136479016Y-76250000D01*
X137520440Y-76250000D01*
X137489755Y-76303147D01*
X137455000Y-76432857D01*
X137455000Y-76567143D01*
X137489755Y-76696853D01*
X137520440Y-76750000D01*
X136479016Y-76750000D01*
X136485781Y-76792716D01*
X136546581Y-76979837D01*
X136635904Y-77155143D01*
X136751555Y-77314321D01*
X136890678Y-77453444D01*
X137049856Y-77569095D01*
X137225164Y-77658418D01*
X137412294Y-77719221D01*
X137606618Y-77750000D01*
X137715000Y-77750000D01*
X137715000Y-76944560D01*
X137768147Y-76975245D01*
X137897857Y-77010000D01*
X138032143Y-77010000D01*
X138161853Y-76975245D01*
X138215000Y-76944560D01*
X138215000Y-77750000D01*
X138323382Y-77750000D01*
X138517705Y-77719221D01*
X138704835Y-77658418D01*
X138880143Y-77569095D01*
X139039321Y-77453444D01*
X139178444Y-77314321D01*
X139294095Y-77155143D01*
X139383418Y-76979837D01*
X139444218Y-76792716D01*
X139450984Y-76750000D01*
X138409560Y-76750000D01*
X138440245Y-76696853D01*
X138475000Y-76567143D01*
X138475000Y-76432857D01*
X138440245Y-76303147D01*
X138409560Y-76250000D01*
X139450984Y-76250000D01*
X139444218Y-76207283D01*
X139383418Y-76020162D01*
X139294095Y-75844856D01*
X139178444Y-75685678D01*
X139039321Y-75546555D01*
X138880143Y-75430904D01*
X138704835Y-75341581D01*
X138517705Y-75280778D01*
X138323382Y-75250000D01*
X138215000Y-75250000D01*
X138215000Y-76055439D01*
X138161853Y-76024755D01*
X138032143Y-75990000D01*
X137897857Y-75990000D01*
X137768147Y-76024755D01*
X137715000Y-76055439D01*
X137715000Y-75250000D01*
X137606618Y-75250000D01*
X137412294Y-75280778D01*
X137225164Y-75341581D01*
X137049856Y-75430904D01*
X136890678Y-75546555D01*
X136751555Y-75685678D01*
X136635904Y-75844856D01*
X136546581Y-76020162D01*
X136485781Y-76207283D01*
X136479016Y-76250000D01*
X133763539Y-76250000D01*
X133759741Y-76249500D01*
X133759734Y-76249500D01*
X133530266Y-76249500D01*
X133530258Y-76249500D01*
X133313715Y-76278009D01*
X133302762Y-76279452D01*
X133214330Y-76303147D01*
X133081112Y-76338842D01*
X132869123Y-76426650D01*
X132869109Y-76426657D01*
X132670382Y-76541392D01*
X132488338Y-76681081D01*
X132326081Y-76843338D01*
X132186392Y-77025382D01*
X132071657Y-77224109D01*
X132071650Y-77224123D01*
X131983842Y-77436112D01*
X131924453Y-77657759D01*
X131924451Y-77657770D01*
X131894500Y-77885258D01*
X129500500Y-77885258D01*
X129500500Y-73752135D01*
X156299500Y-73752135D01*
X156299500Y-76247870D01*
X156299501Y-76247876D01*
X156305908Y-76307483D01*
X156356202Y-76442328D01*
X156356206Y-76442335D01*
X156442452Y-76557544D01*
X156442455Y-76557547D01*
X156557664Y-76643793D01*
X156557671Y-76643797D01*
X156692517Y-76694091D01*
X156692516Y-76694091D01*
X156699444Y-76694835D01*
X156752127Y-76700500D01*
X159247872Y-76700499D01*
X159307483Y-76694091D01*
X159442331Y-76643796D01*
X159557546Y-76557546D01*
X159643796Y-76442331D01*
X159694091Y-76307483D01*
X159700500Y-76247873D01*
X159700499Y-74888575D01*
X161300000Y-74888575D01*
X161300000Y-75111424D01*
X161329085Y-75332354D01*
X161329088Y-75332367D01*
X161386763Y-75547618D01*
X161472045Y-75753502D01*
X161472054Y-75753520D01*
X161583464Y-75946491D01*
X161583473Y-75946504D01*
X161634040Y-76012403D01*
X161634043Y-76012403D01*
X162435387Y-75211059D01*
X162440889Y-75231591D01*
X162519881Y-75368408D01*
X162631592Y-75480119D01*
X162768409Y-75559111D01*
X162788940Y-75564612D01*
X161987595Y-76365955D01*
X161987595Y-76365956D01*
X162053507Y-76416533D01*
X162246485Y-76527949D01*
X162246497Y-76527954D01*
X162452381Y-76613236D01*
X162667632Y-76670911D01*
X162667645Y-76670914D01*
X162888575Y-76700000D01*
X163111425Y-76700000D01*
X163332354Y-76670914D01*
X163332367Y-76670911D01*
X163547618Y-76613236D01*
X163753502Y-76527954D01*
X163753514Y-76527949D01*
X163946498Y-76416530D01*
X164012403Y-76365957D01*
X164012404Y-76365956D01*
X163211059Y-75564612D01*
X163231591Y-75559111D01*
X163368408Y-75480119D01*
X163480119Y-75368408D01*
X163559111Y-75231591D01*
X163564612Y-75211059D01*
X164365956Y-76012404D01*
X164365957Y-76012403D01*
X164416530Y-75946498D01*
X164527949Y-75753514D01*
X164527954Y-75753502D01*
X164613236Y-75547618D01*
X164670911Y-75332367D01*
X164670914Y-75332354D01*
X164700000Y-75111424D01*
X164700000Y-74888575D01*
X164670914Y-74667645D01*
X164670911Y-74667632D01*
X164613236Y-74452381D01*
X164527954Y-74246497D01*
X164527949Y-74246485D01*
X164416533Y-74053507D01*
X164365956Y-73987595D01*
X164365955Y-73987595D01*
X163564612Y-74788939D01*
X163559111Y-74768409D01*
X163480119Y-74631592D01*
X163368408Y-74519881D01*
X163231591Y-74440889D01*
X163211058Y-74435387D01*
X164012403Y-73634043D01*
X164012403Y-73634040D01*
X163946504Y-73583473D01*
X163946491Y-73583464D01*
X163753520Y-73472054D01*
X163753502Y-73472045D01*
X163547618Y-73386763D01*
X163332367Y-73329088D01*
X163332354Y-73329085D01*
X163111425Y-73300000D01*
X162888575Y-73300000D01*
X162667645Y-73329085D01*
X162667632Y-73329088D01*
X162452381Y-73386763D01*
X162246497Y-73472045D01*
X162246479Y-73472054D01*
X162053511Y-73583462D01*
X161987595Y-73634042D01*
X162788941Y-74435387D01*
X162768409Y-74440889D01*
X162631592Y-74519881D01*
X162519881Y-74631592D01*
X162440889Y-74768409D01*
X162435387Y-74788940D01*
X161634042Y-73987595D01*
X161583462Y-74053511D01*
X161472054Y-74246479D01*
X161472045Y-74246497D01*
X161386763Y-74452381D01*
X161329088Y-74667632D01*
X161329085Y-74667645D01*
X161300000Y-74888575D01*
X159700499Y-74888575D01*
X159700499Y-73752128D01*
X159694385Y-73695248D01*
X159694385Y-73695246D01*
X159694092Y-73692519D01*
X159643797Y-73557671D01*
X159643793Y-73557664D01*
X159557547Y-73442455D01*
X159557544Y-73442452D01*
X159442335Y-73356206D01*
X159442328Y-73356202D01*
X159307482Y-73305908D01*
X159307483Y-73305908D01*
X159247883Y-73299501D01*
X159247881Y-73299500D01*
X159247873Y-73299500D01*
X159247864Y-73299500D01*
X156752129Y-73299500D01*
X156752123Y-73299501D01*
X156692516Y-73305908D01*
X156557671Y-73356202D01*
X156557664Y-73356206D01*
X156442455Y-73442452D01*
X156442452Y-73442455D01*
X156356206Y-73557664D01*
X156356202Y-73557671D01*
X156305908Y-73692517D01*
X156299501Y-73752116D01*
X156299501Y-73752123D01*
X156299500Y-73752135D01*
X129500500Y-73752135D01*
X129500500Y-67624500D01*
X129520185Y-67557461D01*
X129572989Y-67511706D01*
X129624500Y-67500500D01*
X177375500Y-67500500D01*
X177442539Y-67520185D01*
G37*
%TD.AperFunction*%
%TD*%
M02*
